<svg width="40" height="40" viewBox="0 0 40 40" fill="none" xmlns="http://www.w3.org/2000/svg">
<path d="M26.5577 28.7806L32.2401 32.4073C39.3165 30.8388 41.9771 22.6909 36.3783 16.9661C35.2607 15.8255 39.931 27.0291 26.5577 28.7806ZM19.611 26.8897C19.2037 26.6037 18.868 26.777 18.868 27.2776V28.9394C-0.396267 28.9394 2.92858 15.594 2.11161 16.9673C-2.40112 24.5721 3.24131 34.5818 18.868 34.5818V36.2449C18.868 36.7455 19.2037 36.9188 19.611 36.6315L25.8122 32.2824C26.2219 31.9964 26.2219 31.5249 25.8122 31.2388L19.611 26.8897Z" fill="#414042"/>
<path d="M5.7406 19.7576C6.63272 20.3818 7.67515 20.6946 8.86545 20.6946C10.2485 20.6946 11.3867 20.3624 12.2751 19.6958C13.1648 19.0303 13.6109 18.1164 13.6109 16.954C13.6109 16.2449 13.4194 15.6352 13.0351 15.1273C12.6509 14.6194 12.1188 14.24 11.4376 13.9903C12.0067 13.7408 12.5018 13.3488 12.8751 12.8521C13.2327 12.3673 13.4121 11.8364 13.4121 11.2606C13.4121 10.103 12.9951 9.20971 12.1721 8.57941C11.3454 7.94789 10.2448 7.63274 8.86666 7.63274C7.67999 7.63274 6.67393 7.94668 5.84121 8.57456C5.00848 9.20244 4.6109 10.023 4.64606 11.034L4.66302 11.0861H7.52242C7.52242 10.737 7.66909 10.4533 7.95757 10.2315C8.24848 10.0109 8.58545 9.90062 8.9709 9.90062C9.45575 9.90062 9.8303 10.0376 10.0861 10.3103C10.343 10.583 10.4703 10.92 10.4703 11.3212C10.4703 11.8267 10.3285 12.223 10.0412 12.5079C9.75757 12.7927 9.3503 12.9358 8.82181 12.9358H7.43515V15.1249H8.82302C9.40969 15.1249 9.86424 15.2655 10.1891 15.5479C10.5115 15.8291 10.6715 16.2788 10.6715 16.8946C10.6715 17.3358 10.5176 17.703 10.2097 17.9927C9.90181 18.2824 9.48484 18.4291 8.97212 18.4291C8.51757 18.4291 8.13454 18.2909 7.81454 18.0146C7.66415 17.89 7.54353 17.7334 7.46153 17.5561C7.37952 17.3789 7.3382 17.1856 7.3406 16.9903H4.46181L4.44484 17.0424C4.41454 18.2279 4.84848 19.1333 5.7406 19.7576ZM19.6873 20.6946C20.983 20.6946 22.0485 20.2776 22.8836 19.4437C23.7188 18.6097 24.1358 17.5649 24.1358 16.3091C24.1358 15.0364 23.8206 13.9903 23.1891 13.1746C22.5588 12.3588 21.6764 11.9491 20.5418 11.9491C19.9988 11.9491 19.5164 12.0303 19.0945 12.194C18.6703 12.3564 18.3273 12.583 18.0739 12.874L18.0461 12.8303C18.0291 11.8885 18.2303 11.1721 18.6545 10.6812C19.0764 10.1903 19.6351 9.94426 20.3333 9.94426C20.6862 9.94086 21.0385 9.97171 21.3854 10.0364C21.6909 10.0982 22.0436 10.1891 22.4533 10.3115L22.9406 8.16607C22.5215 7.99645 22.0894 7.86106 21.6485 7.76123C21.2105 7.67249 20.7644 7.63023 20.3176 7.63516C18.7697 7.63516 17.5054 8.11516 16.52 9.07516C15.5333 10.034 15.04 11.3503 15.04 13.0243V15.5794C15.04 17.1661 15.4691 18.417 16.3236 19.3285C17.1745 20.2388 18.297 20.6946 19.6873 20.6946ZM17.9867 14.8412C18.1551 14.6449 18.3867 14.4909 18.68 14.3818C18.9733 14.2715 19.3212 14.217 19.7309 14.217C20.16 14.217 20.5127 14.4061 20.7806 14.7855C21.0509 15.1649 21.1879 15.6764 21.1879 16.3188C21.1879 16.8921 21.0485 17.3867 20.7685 17.8036C20.4897 18.2206 20.1285 18.4291 19.6861 18.4291C19.1515 18.4291 18.7345 18.1843 18.4339 17.6958C18.1358 17.2073 17.9867 16.5043 17.9867 15.5891V14.8412ZM29.8364 20.6946C31.1854 20.6946 32.2582 20.257 33.0558 19.3818C33.8509 18.5067 34.2485 17.2121 34.2485 15.497V12.8279C34.2485 11.1188 33.8485 9.82547 33.0485 8.94789C32.2509 8.0691 31.1733 7.63032 29.8194 7.63032C28.4582 7.63032 27.383 8.06789 26.5927 8.94304C25.8024 9.81819 25.4061 11.114 25.4061 12.8279V15.497C25.4061 17.2121 25.8036 18.5055 26.6012 19.3818C27.3988 20.257 28.4751 20.6946 29.8364 20.6946ZM28.3455 12.6291C28.3455 11.6582 28.4691 10.96 28.7176 10.5358C28.8226 10.3364 28.982 10.1709 29.1772 10.0583C29.3724 9.94565 29.5954 9.89057 29.8206 9.89941C30.3006 9.89941 30.6727 10.1115 30.9285 10.5358C31.1818 10.96 31.3115 11.657 31.3115 12.6291V15.6812C31.3115 16.6691 31.1855 17.3746 30.937 17.7952C30.6861 18.217 30.3188 18.4279 29.8364 18.4279C29.3418 18.4279 28.9721 18.217 28.7212 17.7952C28.4703 17.3746 28.3442 16.6691 28.3442 15.6812L28.3455 12.6291ZM38.6812 4.02304C38.2048 3.49456 37.543 3.23032 36.6897 3.23032C35.8364 3.23032 35.177 3.49456 34.703 4.02304C34.2242 4.55153 33.9879 5.23516 33.9879 6.07516V6.18426C33.9879 7.02668 34.2242 7.71274 34.703 8.23759C35.177 8.76607 35.8412 9.0291 36.6982 9.0291C37.543 9.0291 38.2036 8.76607 38.68 8.23759C39.1576 7.71153 39.3939 7.02668 39.3939 6.18426V6.07516C39.3939 5.23516 39.1576 4.55153 38.6812 4.02304ZM37.6533 6.18426C37.6533 6.6485 37.5794 7.01577 37.4327 7.28365C37.2848 7.55153 37.0412 7.68486 36.6994 7.68486C36.3467 7.68486 36.0982 7.55274 35.9539 7.28486C35.8073 7.0182 35.7333 6.65092 35.7333 6.18304V6.07395C35.7333 5.62304 35.8073 5.26062 35.9539 4.98547C36.0982 4.71032 36.3442 4.57335 36.6897 4.57335C37.0376 4.57335 37.2836 4.71032 37.4327 4.98304C37.5794 5.25698 37.6533 5.62062 37.6533 6.07395V6.18426Z" fill="#414042"/>
</svg>
