<svg width="14" height="14" viewBox="0 0 14 14" fill="none" xmlns="http://www.w3.org/2000/svg">
<mask id="path-1-inside-1_804_4052" fill="white">
<path d="M7.09766 0C8.11556 0.024684 9.08306 0.417755 9.79395 1.09473C10.5047 1.77175 10.9035 2.67948 10.9043 3.625V4H13.8652C13.9009 4 13.9357 4.01272 13.9609 4.03613C13.9862 4.05957 14 4.09185 14 4.125V13.5C14 13.6325 13.9436 13.7598 13.8428 13.8535C13.7419 13.9472 13.6046 13.9999 13.4619 14H0.538086C0.395413 13.9999 0.258119 13.9472 0.157227 13.8535C0.0564201 13.7598 0 13.6325 0 13.5V4.125C0 4.09185 0.0138172 4.05957 0.0390625 4.03613C0.0643037 4.01272 0.0990833 4 0.134766 4H3.0957V3.625C3.0965 2.67948 3.49527 1.77175 4.20605 1.09473C4.91694 0.417755 5.88444 0.0246841 6.90234 0H7.09766ZM6.97461 1.25C5.5666 1.26383 4.44238 2.3488 4.44238 3.65625V4H9.55762V3.625C9.55727 3.31124 9.49057 3.00046 9.36035 2.71094C9.23015 2.42148 9.03884 2.15922 8.79883 1.93848C8.55874 1.71772 8.27397 1.54289 7.96094 1.4248C7.64787 1.30672 7.31251 1.24724 6.97461 1.25Z"/>
</mask>
<path d="M7.09766 0C8.11556 0.024684 9.08306 0.417755 9.79395 1.09473C10.5047 1.77175 10.9035 2.67948 10.9043 3.625V4H13.8652C13.9009 4 13.9357 4.01272 13.9609 4.03613C13.9862 4.05957 14 4.09185 14 4.125V13.5C14 13.6325 13.9436 13.7598 13.8428 13.8535C13.7419 13.9472 13.6046 13.9999 13.4619 14H0.538086C0.395413 13.9999 0.258119 13.9472 0.157227 13.8535C0.0564201 13.7598 0 13.6325 0 13.5V4.125C0 4.09185 0.0138172 4.05957 0.0390625 4.03613C0.0643037 4.01272 0.0990833 4 0.134766 4H3.0957V3.625C3.0965 2.67948 3.49527 1.77175 4.20605 1.09473C4.91694 0.417755 5.88444 0.0246841 6.90234 0H7.09766ZM6.97461 1.25C5.5666 1.26383 4.44238 2.3488 4.44238 3.65625V4H9.55762V3.625C9.55727 3.31124 9.49057 3.00046 9.36035 2.71094C9.23015 2.42148 9.03884 2.15922 8.79883 1.93848C8.55874 1.71772 8.27397 1.54289 7.96094 1.4248C7.64787 1.30672 7.31251 1.24724 6.97461 1.25Z" fill="#F3E4CF"/>
<path d="M7.09766 0L7.56122 -19.1161L7.32947 -19.1218H7.09766V0ZM9.79395 1.09473L22.9823 -12.7512L22.9808 -12.7526L9.79395 1.09473ZM10.9043 3.625H30.0261V3.61696L30.026 3.60891L10.9043 3.625ZM10.9043 4H-8.21746V23.1218H10.9043V4ZM13.9609 4.03613L26.9724 -9.97617L26.9661 -9.98194L13.9609 4.03613ZM13.8428 13.8535L26.8542 27.8658L26.8644 27.8563L13.8428 13.8535ZM13.4619 14L13.4619 33.1218L13.4743 33.1218L13.4619 14ZM0.538086 14L0.525718 33.1218H0.538086V14ZM0.157227 13.8535L-12.8644 27.8563L-12.8542 27.8658L0.157227 13.8535ZM0 13.5L-19.1218 13.5L0 13.5ZM0.0390625 4.03613L-12.9662 -9.98192L-12.9724 -9.97617L0.0390625 4.03613ZM3.0957 4V23.1218H22.2175V4H3.0957ZM3.0957 3.625L-16.026 3.60891L-16.0261 3.61696V3.625H3.0957ZM4.20605 1.09473L-8.98075 -12.7526L-8.98231 -12.7512L4.20605 1.09473ZM6.90234 0V-19.1218H6.67053L6.43878 -19.1161L6.90234 0ZM6.97461 1.25L6.81823 -17.8711L6.80254 -17.871L6.78686 -17.8708L6.97461 1.25ZM4.44238 4H-14.6794V23.1218H4.44238V4ZM9.55762 4V23.1218H28.6794V4H9.55762ZM9.55762 3.625H28.6794V3.61457L28.6794 3.60414L9.55762 3.625ZM9.36035 2.71094L26.7993 -5.13281L26.7991 -5.1333L9.36035 2.71094ZM8.79883 1.93848L21.7431 -12.1359L21.7415 -12.1373L8.79883 1.93848ZM7.96094 1.4248L14.7099 -16.4663L14.7093 -16.4666L7.96094 1.4248ZM7.09766 0L6.63409 19.1161C3.09308 19.0303 -0.529479 17.6689 -3.39286 14.9421L9.79395 1.09473L22.9808 -12.7526C18.6956 -16.8334 13.1381 -18.9809 7.56122 -19.1161L7.09766 0ZM9.79395 1.09473L-3.39442 14.9406C-6.29921 12.1738 -8.21366 8.15207 -8.21745 3.64109L10.9043 3.625L30.026 3.60891C30.0207 -2.79311 27.3087 -8.63026 22.9823 -12.7512L9.79395 1.09473ZM10.9043 3.625H-8.21746V4H10.9043H30.0261V3.625H10.9043ZM10.9043 4V23.1218H13.8652V4V-15.1218H10.9043V4ZM13.8652 4V23.1218C9.51739 23.1218 4.77661 21.599 0.955742 18.0542L13.9609 4.03613L26.9661 -9.98194C23.0948 -13.5736 18.2844 -15.1218 13.8652 -15.1218V4ZM13.9609 4.03613L0.949518 18.0484C-2.91396 14.4609 -5.12176 9.41945 -5.12176 4.125H14H33.1218C33.1218 -1.23575 30.8863 -6.34176 26.9724 -9.97617L13.9609 4.03613ZM14 4.125H-5.12176V13.5H14H33.1218V4.125H14ZM14 13.5H-5.12176C-5.12176 8.11871 -2.81823 3.23508 0.821115 -0.149268L13.8428 13.8535L26.8644 27.8563C30.7054 24.2845 33.1218 19.1463 33.1218 13.5H14ZM13.8428 13.8535L0.831354 -0.158782C4.41338 -3.48495 8.97745 -5.11886 13.4495 -5.12175L13.4619 14L13.4743 33.1218C18.2317 33.1187 23.0704 31.3793 26.8542 27.8658L13.8428 13.8535ZM13.4619 14V-5.12176H0.538086V14V33.1218H13.4619V14ZM0.538086 14L0.550453 -5.12175C5.02255 -5.11886 9.58662 -3.48495 13.1686 -0.158782L0.157227 13.8535L-12.8542 27.8658C-9.07039 31.3793 -4.23172 33.1187 0.525718 33.1218L0.538086 14ZM0.157227 13.8535L13.1789 -0.149271C16.8182 3.23508 19.1218 8.11872 19.1218 13.5L0 13.5L-19.1218 13.5C-19.1218 19.1463 -16.7054 24.2845 -12.8644 27.8563L0.157227 13.8535ZM0 13.5H19.1218V4.125H0H-19.1218V13.5H0ZM0 4.125H19.1218C19.1218 9.41945 16.914 14.4609 13.0505 18.0484L0.0390625 4.03613L-12.9724 -9.97617C-16.8863 -6.34176 -19.1218 -1.23575 -19.1218 4.125H0ZM0.0390625 4.03613L13.0443 18.0542C9.22339 21.599 4.48258 23.1218 0.134766 23.1218V4V-15.1218C-4.28441 -15.1218 -9.09478 -13.5736 -12.9662 -9.98192L0.0390625 4.03613ZM0.134766 4V23.1218H3.0957V4V-15.1218H0.134766V4ZM3.0957 4H22.2175V3.625H3.0957H-16.0261V4H3.0957ZM3.0957 3.625L22.2175 3.64109C22.2137 8.15208 20.2992 12.1738 17.3944 14.9406L4.20605 1.09473L-8.98231 -12.7512C-13.3087 -8.63026 -16.0207 -2.79311 -16.026 3.60891L3.0957 3.625ZM4.20605 1.09473L17.3929 14.9421C14.5295 17.6689 10.9069 19.0303 7.36591 19.1161L6.90234 0L6.43878 -19.1161C0.86195 -18.9809 -4.6956 -16.8334 -8.98075 -12.7526L4.20605 1.09473ZM6.90234 0V19.1218H7.09766V0V-19.1218H6.90234V0ZM6.97461 1.25L6.78686 -17.8708C-4.08858 -17.764 -14.6794 -9.12968 -14.6794 3.65625H4.44238H23.5641C23.5641 13.8273 15.2218 20.2917 7.16236 20.3708L6.97461 1.25ZM4.44238 3.65625H-14.6794V4H4.44238H23.5641V3.65625H4.44238ZM4.44238 4V23.1218H9.55762V4V-15.1218H4.44238V4ZM9.55762 4H28.6794V3.625H9.55762H-9.56414V4H9.55762ZM9.55762 3.625L28.6794 3.60414C28.6761 0.583307 28.0318 -2.39262 26.7993 -5.13281L9.36035 2.71094L-8.0786 10.5547C-9.05066 8.39353 -9.56152 6.03918 -9.56413 3.64586L9.55762 3.625ZM9.36035 2.71094L26.7991 -5.1333C25.5649 -7.87699 23.8092 -10.2357 21.7431 -12.1359L8.79883 1.93848L-4.14543 16.0128C-5.73151 14.5541 -7.10463 12.72 -8.07838 10.5552L9.36035 2.71094ZM8.79883 1.93848L21.7415 -12.1373C19.6624 -14.0491 17.2643 -15.5027 14.7099 -16.4663L7.96094 1.4248L1.21193 19.3159C-0.716383 18.5885 -2.54491 17.4845 -4.14385 16.0143L8.79883 1.93848ZM7.96094 1.4248L14.7093 -16.4666C12.1705 -17.4242 9.49272 -17.893 6.81823 -17.8711L6.97461 1.25L7.13099 20.3711C5.1323 20.3875 3.12525 20.0376 1.21256 19.3162L7.96094 1.4248Z" fill="#F3E4CF" mask="url(#path-1-inside-1_804_4052)"/>
</svg>
