<svg width="13" height="13" viewBox="0 0 13 13" fill="none" xmlns="http://www.w3.org/2000/svg">
<mask id="path-1-inside-1_742_1055" fill="white">
<path d="M6.58984 0C7.53497 0.02283 8.43361 0.387174 9.09375 1.01562C9.75393 1.6443 10.1243 2.48813 10.125 3.36621V3.71387H12.875C12.908 3.71393 12.9395 3.72644 12.9629 3.74805C12.9863 3.76978 13 3.79935 13 3.83008V12.5352C13 12.6582 12.9471 12.7762 12.8535 12.8633C12.7598 12.9503 12.6325 12.9999 12.5 13H0.5C0.367394 13 0.240251 12.9503 0.146484 12.8633C0.0528059 12.7762 0 12.6582 0 12.5352V3.83008C4.47683e-05 3.79944 0.0128549 3.76976 0.0361328 3.74805C0.0595744 3.72628 0.0918486 3.71387 0.125 3.71387H2.875V3.36621C2.87574 2.48813 3.2451 1.6443 3.90527 1.01562C4.56536 0.387037 5.46401 0.0229236 6.40918 0H6.58984ZM5.44922 10.1123L3.9834 8.52148L3 9.30371L5.48242 12L10 6.75195L8.98926 6L5.44922 10.1123ZM6.47656 1.16113C5.16925 1.1739 4.12526 2.18066 4.125 3.39453V3.71387H8.875V3.36621C8.87468 3.07496 8.81225 2.78634 8.69141 2.51758C8.57047 2.24873 8.39288 2.00481 8.16992 1.7998C7.94711 1.59494 7.68306 1.43288 7.39258 1.32324C7.10191 1.21361 6.79028 1.15858 6.47656 1.16113Z"/>
</mask>
<path d="M6.58984 0C7.53497 0.02283 8.43361 0.387174 9.09375 1.01562C9.75393 1.6443 10.1243 2.48813 10.125 3.36621V3.71387H12.875C12.908 3.71393 12.9395 3.72644 12.9629 3.74805C12.9863 3.76978 13 3.79935 13 3.83008V12.5352C13 12.6582 12.9471 12.7762 12.8535 12.8633C12.7598 12.9503 12.6325 12.9999 12.5 13H0.5C0.367394 13 0.240251 12.9503 0.146484 12.8633C0.0528059 12.7762 0 12.6582 0 12.5352V3.83008C4.47683e-05 3.79944 0.0128549 3.76976 0.0361328 3.74805C0.0595744 3.72628 0.0918486 3.71387 0.125 3.71387H2.875V3.36621C2.87574 2.48813 3.2451 1.6443 3.90527 1.01562C4.56536 0.387037 5.46401 0.0229236 6.40918 0H6.58984ZM5.44922 10.1123L3.9834 8.52148L3 9.30371L5.48242 12L10 6.75195L8.98926 6L5.44922 10.1123ZM6.47656 1.16113C5.16925 1.1739 4.12526 2.18066 4.125 3.39453V3.71387H8.875V3.36621C8.87468 3.07496 8.81225 2.78634 8.69141 2.51758C8.57047 2.24873 8.39288 2.00481 8.16992 1.7998C7.94711 1.59494 7.68306 1.43288 7.39258 1.32324C7.10191 1.21361 6.79028 1.15858 6.47656 1.16113Z" fill="#F3E4CF"/>
<path d="M6.58984 0L7.0516 -19.1162L6.82076 -19.1218H6.58984V0ZM9.09375 1.01562L22.2805 -12.8318L22.2784 -12.8338L9.09375 1.01562ZM10.125 3.36621H29.2468V3.35817L29.2467 3.35012L10.125 3.36621ZM10.125 3.71387H-8.99676V22.8356H10.125V3.71387ZM12.875 3.71387L12.9104 -15.4079L12.8927 -15.4079H12.875V3.71387ZM12.9629 3.74805L25.9742 -10.2643L25.9592 -10.2783L25.9442 -10.2922L12.9629 3.74805ZM13 3.83008H32.1218V3.81614L32.1217 3.8022L13 3.83008ZM12.8535 12.8633L25.8648 26.8757L25.8703 26.8706L25.8757 26.8655L12.8535 12.8633ZM12.5 13V32.1218L12.5086 32.1218L12.5 13ZM0.146484 12.8633L-12.8704 26.8705L-12.8649 26.8757L0.146484 12.8633ZM0 12.5352H-19.1218H0ZM0 3.83008L-19.1217 3.80214L-19.1218 3.81611V3.83008H0ZM0.0361328 3.74805L-12.9752 -10.2643L-12.9908 -10.2498L-13.0064 -10.2353L0.0361328 3.74805ZM2.875 3.71387V22.8356H21.9968V3.71387H2.875ZM2.875 3.36621L-16.2467 3.35012L-16.2468 3.35817V3.36621H2.875ZM3.90527 1.01562L-9.2814 -12.8319L-9.28145 -12.8318L3.90527 1.01562ZM6.40918 0V-19.1218H6.17733L5.94555 -19.1161L6.40918 0ZM5.44922 10.1123L-8.61309 23.0697L5.93467 38.858L19.941 22.5874L5.44922 10.1123ZM3.9834 8.52148L18.0457 -4.43587L5.99622 -17.5129L-7.92014 -6.44339L3.9834 8.52148ZM3 9.30371L-8.90354 -5.66116L-24.9894 7.13408L-11.0675 22.2554L3 9.30371ZM5.48242 12L-8.5851 24.9517L5.96245 40.7526L19.9744 24.4749L5.48242 12ZM10 6.75195L24.492 19.2268L37.8871 3.66581L21.4137 -8.58981L10 6.75195ZM8.98926 6L20.4029 -9.34176L6.11537 -19.9712L-5.50255 -6.47514L8.98926 6ZM6.47656 1.16113L6.3211 -17.96L6.30547 -17.9599L6.28985 -17.9597L6.47656 1.16113ZM4.125 3.39453L-14.9968 3.39046V3.39453H4.125ZM4.125 3.71387H-14.9968V22.8356H4.125V3.71387ZM8.875 3.71387V22.8356H27.9968V3.71387H8.875ZM8.875 3.36621H27.9968V3.35578L27.9967 3.34536L8.875 3.36621ZM8.69141 2.51758L26.1313 -5.32417L26.1301 -5.32674L8.69141 2.51758ZM8.16992 1.7998L21.1125 -12.2761L21.1123 -12.2763L8.16992 1.7998ZM7.39258 1.32324L14.145 -16.5666L14.1409 -16.5681L7.39258 1.32324ZM6.58984 0L6.12808 19.1162C2.5234 19.0291 -1.17043 17.6453 -4.09086 14.8651L9.09375 1.01562L22.2784 -12.8338C18.0376 -16.871 12.5465 -18.9834 7.0516 -19.1162L6.58984 0ZM9.09375 1.01562L-4.09297 14.8631C-7.05388 12.0434 -8.9929 7.95549 -8.99675 3.3823L10.125 3.36621L29.2467 3.35012C29.2414 -2.97922 26.5617 -8.75484 22.2805 -12.8318L9.09375 1.01562ZM10.125 3.36621H-8.99676V3.71387H10.125H29.2468V3.36621H10.125ZM10.125 3.71387V22.8356H12.875V3.71387V-15.4079H10.125V3.71387ZM12.875 3.71387L12.8396 22.8356C8.10988 22.8268 3.51018 21.0507 -0.0183747 17.7883L12.9629 3.74805L25.9442 -10.2922C22.3689 -13.5978 17.7061 -15.399 12.9104 -15.4079L12.875 3.71387ZM12.9629 3.74805L-0.0484435 17.7604C-3.60349 14.4593 -6.11345 9.54459 -6.12174 3.85795L13 3.83008L32.1217 3.8022C32.1134 -1.94589 29.5761 -6.9198 25.9742 -10.2643L12.9629 3.74805ZM13 3.83008H-6.12176V12.5352H13H32.1218V3.83008H13ZM13 12.5352H-6.12176C-6.12176 7.08771 -3.77159 2.21174 -0.168709 -1.13898L12.8535 12.8633L25.8757 26.8655C29.6658 23.3407 32.1218 18.2286 32.1218 12.5352H13ZM12.8535 12.8633L-0.157818 -1.1491C3.37559 -4.43008 7.92802 -6.1197 12.4914 -6.12175L12.5 13L12.5086 32.1218C17.337 32.1196 22.144 30.3307 25.8648 26.8757L12.8535 12.8633ZM12.5 13V-6.12176H0.5V13V32.1218H12.5V13ZM0.5 13V-6.12176C5.07562 -6.12176 9.629 -4.42582 13.1578 -1.1491L0.146484 12.8633L-12.8649 26.8757C-9.14849 30.3265 -4.34083 32.1218 0.5 32.1218V13ZM0.146484 12.8633L13.1634 -1.14394C16.7753 2.21265 19.1218 7.09309 19.1218 12.5352H0H-19.1218C-19.1218 18.2234 -16.6697 23.3398 -12.8704 26.8705L0.146484 12.8633ZM0 12.5352H19.1218V3.83008H0H-19.1218V12.5352H0ZM0 3.83008L19.1217 3.85802C19.114 9.17835 16.883 14.183 13.0787 17.7314L0.0361328 3.74805L-13.0064 -10.2353C-16.8572 -6.64352 -19.1139 -1.57948 -19.1217 3.80214L0 3.83008ZM0.0361328 3.74805L13.0475 17.7604C9.39451 21.1524 4.7245 22.8356 0.125 22.8356V3.71387V-15.4079C-4.5408 -15.4079 -9.27536 -13.6999 -12.9752 -10.2643L0.0361328 3.74805ZM0.125 3.71387V22.8356H2.875V3.71387V-15.4079H0.125V3.71387ZM2.875 3.71387H21.9968V3.36621H2.875H-16.2468V3.71387H2.875ZM2.875 3.36621L21.9967 3.3823C21.9929 7.94153 20.0634 12.0335 17.092 14.8631L3.90527 1.01562L-9.28145 -12.8318C-13.5732 -8.74486 -16.2414 -2.96526 -16.2467 3.35012L2.875 3.36621ZM3.90527 1.01562L17.0919 14.8631C14.1682 17.6474 10.4727 19.0288 6.87281 19.1161L6.40918 0L5.94555 -19.1161C0.455334 -18.983 -5.03745 -16.8733 -9.2814 -12.8319L3.90527 1.01562ZM6.40918 0V19.1218H6.58984V0V-19.1218H6.40918V0ZM5.44922 10.1123L19.5115 -2.84505L18.0457 -4.43587L3.9834 8.52148L-10.0789 21.4788L-8.61309 23.0697L5.44922 10.1123ZM3.9834 8.52148L-7.92014 -6.44339L-8.90354 -5.66116L3 9.30371L14.9035 24.2686L15.8869 23.4864L3.9834 8.52148ZM3 9.30371L-11.0675 22.2554L-8.5851 24.9517L5.48242 12L19.5499 -0.951696L17.0675 -3.64799L3 9.30371ZM5.48242 12L19.9744 24.4749L24.492 19.2268L10 6.75195L-4.49202 -5.72294L-9.0096 -0.474893L5.48242 12ZM10 6.75195L21.4137 -8.58981L20.4029 -9.34176L8.98926 6L-2.42442 21.3418L-1.41368 22.0937L10 6.75195ZM8.98926 6L-5.50255 -6.47514L-9.04259 -2.36283L5.44922 10.1123L19.941 22.5874L23.4811 18.4751L8.98926 6ZM6.47656 1.16113L6.28985 -17.9597C-4.47762 -17.8546 -14.9941 -9.30645 -14.9968 3.39046L4.125 3.39453L23.2468 3.3986C23.2446 13.6678 14.8161 20.2024 6.66328 20.282L6.47656 1.16113ZM4.125 3.39453H-14.9968V3.71387H4.125H23.2468V3.39453H4.125ZM4.125 3.71387V22.8356H8.875V3.71387V-15.4079H4.125V3.71387ZM8.875 3.71387H27.9968V3.36621H8.875H-10.2468V3.71387H8.875ZM8.875 3.36621L27.9967 3.34536C27.9935 0.325936 27.3448 -2.62533 26.1313 -5.32417L8.69141 2.51758L-8.74845 10.3593C-9.72027 8.19802 -10.2441 5.82398 -10.2467 3.38707L8.875 3.36621ZM8.69141 2.51758L26.1301 -5.32674C24.9099 -8.03927 23.1717 -10.3827 21.1125 -12.2761L8.16992 1.7998L-4.77267 15.8757C-6.38594 14.3923 -7.769 12.5367 -8.74729 10.3619L8.69141 2.51758ZM8.16992 1.7998L21.1123 -12.2763C19.0492 -14.1732 16.6726 -15.6126 14.145 -16.5666L7.39258 1.32324L0.640165 19.2131C-1.30645 18.4783 -3.15503 17.363 -4.77245 15.8759L8.16992 1.7998ZM7.39258 1.32324L14.1409 -16.5681C11.615 -17.5208 8.96058 -17.9815 6.3211 -17.96L6.47656 1.16113L6.63203 20.2823C4.61998 20.2986 2.58878 19.9481 0.644268 19.2146L7.39258 1.32324Z" fill="white" mask="url(#path-1-inside-1_742_1055)"/>
</svg>
