<svg width="21" height="21" viewBox="0 0 21 21" fill="none" xmlns="http://www.w3.org/2000/svg">
<path d="M13 16.8768C13 15.7244 12.3028 15.0543 10.9664 13.8731C10.6644 13.6036 10.3382 13.318 10.0017 13C9.61777 13.3674 9.2528 13.6907 8.91803 13.9881C7.58412 15.1612 7 15.7351 7 16.8768C7 17.7051 7.31607 18.4995 7.87868 19.0852C8.44129 19.671 9.20435 20 10 20C10.7956 20 11.5587 19.671 12.1213 19.0852C12.6839 18.4995 13 17.7051 13 16.8768Z" fill="#D6682B"/>
<path d="M13.7715 3.53062C12.7449 2.639 11.6841 1.71763 10.6114 0.62125L10.0006 0L9.40179 0.622125C7.47359 2.60138 6.56167 5.64113 6.16645 7.46463C5.86318 6.9843 5.63812 6.45682 5.50005 5.90275L5.13477 4.47038L4.08 5.48275C2.23307 7.25725 1.00036 9.01687 1.00036 11.8344C0.982598 13.8675 1.62959 15.8483 2.83855 17.4622C4.0475 19.0761 5.74907 20.2304 7.67291 20.7419C8.15631 20.8671 8.64856 20.9534 9.14515 21C8.06837 20.7947 7.09556 20.211 6.39497 19.3498C5.69437 18.4886 5.31004 17.4041 5.30843 16.2838C5.30843 14.315 6.46928 13.3088 7.8132 12.1345C8.29312 11.7171 8.83975 11.2438 9.39152 10.6759L10.0006 10.0564L10.6063 10.6759C11.099 11.1799 11.5918 11.6069 12.0682 12.0216C13.4164 13.1915 14.6894 14.2966 14.6894 16.2838C14.688 17.3997 14.3067 18.4803 13.6111 19.34C12.9155 20.1996 11.949 20.7847 10.8774 20.9947C13.1021 20.774 15.1666 19.7135 16.6683 18.0203C18.17 16.327 19.0013 14.1223 19 11.8361C19 8.07188 16.5765 5.9675 13.7715 3.53062Z" fill="#D6682B"/>
</svg>
