<svg width="25" height="21" viewBox="0 0 25 21" fill="none" xmlns="http://www.w3.org/2000/svg">
<path d="M0.504883 6.99805C0.439885 5.35036 1.05876 3.74063 2.23438 2.52148C3.40809 1.30445 5.04189 0.575434 6.78125 0.5C7.86459 0.518711 8.92293 0.809269 9.84961 1.34082C10.7804 1.87479 11.5447 2.63247 12.0674 3.53516L12.5 4.2832L12.9326 3.53516C13.4553 2.63247 14.2196 1.87479 15.1504 1.34082C16.0768 0.809428 17.1348 0.518868 18.2178 0.5C19.9575 0.575204 21.5917 1.30422 22.7656 2.52148C23.9412 3.74063 24.5601 5.35036 24.4951 6.99805V7.01758C24.4951 9.10884 23.3359 11.3649 21.5898 13.5576C19.8542 15.7372 17.5953 17.7846 15.5195 19.4492H15.5186C14.6759 20.1262 13.6073 20.5 12.5 20.5C11.3927 20.5 10.3241 20.1262 9.48145 19.4492H9.48047C7.40469 17.7846 5.14578 15.7372 3.41016 13.5576C1.66406 11.3649 0.504883 9.10884 0.504883 7.01758V6.99805Z" stroke="#D0D0D0"/>
</svg>
