<svg width="94" height="24" viewBox="0 0 94 24" fill="none" xmlns="http://www.w3.org/2000/svg">
<g clip-path="url(#clip0_4161_5186)">
<mask id="mask0_4161_5186" style="mask-type:luminance" maskUnits="userSpaceOnUse" x="0" y="1" width="93" height="23">
<path d="M93 1H0V24H93V1Z" fill="white"/>
</mask>
<g mask="url(#mask0_4161_5186)">
<path d="M7.7632 11.491L11.2017 11.0845C11.2741 11.0774 11.3247 11.0132 11.3247 10.9419C11.2885 9.75098 10.6732 9.65114 9.15306 9.65114C7.77045 9.65114 7.09721 9.86508 7.01035 10.8706C7.0031 10.9419 6.9452 10.9918 6.87281 10.9918H3.41987C3.34023 10.9918 3.28233 10.9276 3.28233 10.8492C3.42709 7.65443 6.14893 6 9.31956 6C12.5626 6 15.3134 7.5546 15.3134 11.5837V14.8854C15.3134 14.9567 15.3713 15.0209 15.4509 15.0209H16.8624C16.9349 15.0209 17 15.0779 17 15.1564V18.615C17 18.6863 16.9422 18.7504 16.8624 18.7504H14.3144C13.1779 18.7504 12.5119 18.0587 12.5119 16.8464V16.383C12.5119 16.2332 12.3092 16.1975 12.2513 16.333C11.5998 17.8376 10.2678 19 7.32886 19C3.62256 19 3 16.6254 3 15.3418C3 13.1739 4.17995 11.8832 7.7632 11.491ZM8.34231 15.6413C9.92039 15.6413 11.2234 14.7713 11.3247 13.3665C11.332 13.2809 11.2523 13.2096 11.1655 13.2238L8.50881 13.6446C7.4664 13.8157 6.8873 13.9441 6.8873 14.6358C6.8873 15.4416 7.58223 15.6413 8.34231 15.6413Z" fill="#5E5E5E"/>
<path d="M28.9935 7.16428L25.8683 18.9041C25.8547 18.9589 25.8005 19 25.746 19H19.2717C19.2106 19 19.163 18.9589 19.1494 18.9041L16.004 7.16428C15.9835 7.08215 16.0447 7 16.1262 7H19.6182C19.6793 7 19.7269 7.04107 19.7404 7.09584L22.4579 17.3434C22.4919 17.4734 22.6754 17.4734 22.7092 17.3434L25.3656 7.10268C25.3793 7.04791 25.4336 7.00684 25.488 7.00684H28.8711C28.9595 7 29.0206 7.08215 28.9935 7.16428Z" fill="#5E5E5E"/>
<path d="M29 16.4673C29 15.1358 29.9232 14 31.4798 14C32.9892 14 34 15.1292 34 16.4673C34 17.8446 32.9892 19 31.4798 19C29.9232 19 29 17.8512 29 16.4673Z" fill="#5E5E5E"/>
<path d="M36.1319 6.23649H40.4353C40.5047 6.23649 40.5672 6.29054 40.5672 6.36487V8.00676C40.5672 8.13515 40.7407 8.18244 40.8102 8.07433C41.5389 6.91217 42.7466 6 44.829 6C48.466 6 50 8.83109 50 12.1824C50 15.5068 48.466 18.3175 44.829 18.3175C42.6564 18.3175 41.4834 17.3311 40.8102 16.2501C40.7407 16.1419 40.5672 16.1825 40.5672 16.3176V22.8717C40.5672 22.9393 40.5116 23 40.4353 23H36.1319C36.0625 23 36 22.9459 36 22.8717V6.36487C36 6.2973 36.0556 6.23649 36.1319 6.23649ZM43.3644 14.7838C45.2316 14.7838 46.2032 14.0135 46.2032 12.1824C46.2032 10.3581 45.2246 9.53379 43.3644 9.53379C41.525 9.53379 40.5881 10.3311 40.5881 12.1824C40.5881 13.9865 41.5181 14.7838 43.3644 14.7838Z" fill="#5E5E5E"/>
<path d="M52.137 15.4348H53.8025C53.871 15.4348 53.9327 15.3801 53.9327 15.305V10.7359C53.9327 10.6676 53.8778 10.6061 53.8025 10.6061H52.137C52.0684 10.6061 52.0068 10.5515 52.0068 10.4764V7.15709C52.0068 7.08879 52.0617 7.02731 52.137 7.02731H55.6872C56.8934 7.02731 57.6817 7.66932 57.6817 8.75525V9.49971C57.6817 9.64312 57.8735 9.67727 57.9284 9.54751C58.5658 8.03813 59.8131 7 61.7321 7H62.8698C62.9383 7 63 7.05464 63 7.12976V10.4695C63 10.5378 62.9453 10.5993 62.8698 10.5993H60.5464C58.7714 10.5993 57.5857 11.4735 57.5857 14.6698V15.2982C57.5857 15.3665 57.6405 15.4279 57.7158 15.4279H60.7451C60.8137 15.4279 60.8754 15.4826 60.8754 15.5577V18.8702C60.8754 18.9385 60.8206 19 60.7451 19H52.1303C52.0617 19 52 18.9453 52 18.8702V15.5577C52.0068 15.4894 52.0684 15.4348 52.137 15.4348Z" fill="#5E5E5E"/>
<path d="M70.5106 6C74.0593 6 77 8.05374 77 12.475C77 16.9462 74.0593 19 70.5106 19C66.9196 19 64 16.9462 64 12.475C64 8.04661 66.9125 6 70.5106 6ZM70.5106 15.2633C72.0446 15.2633 73.1121 14.3505 73.1121 12.4679C73.1121 10.6138 72.0517 9.72242 70.5106 9.72242C68.9272 9.72242 67.8669 10.6138 67.8669 12.4679C67.8669 14.3505 68.9272 15.2633 70.5106 15.2633Z" fill="#5E5E5E"/>
<path d="M78 12.6258C78 9.19451 79.6062 6.29331 83.4142 6.29331C85.6671 6.29331 86.91 7.2906 87.6221 8.3925C87.6949 8.50409 87.8765 8.45527 87.8765 8.32277V1.13251C87.8765 1.06277 87.9347 1 88.0146 1H92.862C92.9346 1 93 1.05579 93 1.13251V18.6304C93 18.7001 92.9419 18.763 92.862 18.763H88.0146C87.9419 18.763 87.8765 18.7072 87.8765 18.6304V16.9497C87.8765 16.8171 87.6949 16.7683 87.6221 16.88C86.8591 18.0585 85.5946 19 83.4142 19C79.6062 19 78 16.0779 78 12.6258ZM84.9477 15.3526C86.7574 15.3526 87.8547 14.432 87.8547 12.6188C87.8547 10.8543 86.7646 9.93377 84.9477 9.93377C83.0654 9.93377 81.9754 10.8265 81.9754 12.6188C81.9754 14.4599 83.0728 15.3526 84.9477 15.3526Z" fill="#5E5E5E"/>
</g>
<path d="M37.0413 3C36.8677 3 36.7149 2.97668 36.5827 2.93002C36.4532 2.88091 36.3444 2.81339 36.2561 2.72744C36.1709 2.63905 36.1061 2.53468 36.0621 2.41436C36.0207 2.2916 36 2.15654 36 2.0092C36 1.86188 36.0221 1.72682 36.0662 1.60406C36.1129 1.48128 36.1818 1.37569 36.2727 1.28729C36.3637 1.1989 36.4739 1.12891 36.6034 1.07735C36.7327 1.02578 36.8829 1 37.0538 1C37.1749 1 37.2865 1.01228 37.3884 1.03683C37.4931 1.05893 37.5855 1.09699 37.6654 1.15101C37.7453 1.20258 37.8141 1.26888 37.8719 1.34991C37.9297 1.42848 37.9697 1.52425 37.9918 1.6372H37.5041C37.4794 1.55371 37.4257 1.48988 37.3431 1.44567C37.2632 1.39902 37.164 1.37569 37.0454 1.37569C36.9409 1.37569 36.8513 1.39288 36.7769 1.42726C36.7026 1.46163 36.6419 1.50829 36.595 1.56722C36.5483 1.62616 36.5138 1.6949 36.4917 1.77348C36.4725 1.8496 36.4628 1.92941 36.4628 2.01289C36.4628 2.09884 36.4739 2.17987 36.4959 2.25599C36.518 2.33211 36.5524 2.3984 36.5991 2.45489C36.6487 2.50891 36.7108 2.55311 36.7852 2.58748C36.8595 2.6194 36.9491 2.63536 37.0538 2.63536C37.1777 2.63536 37.2796 2.6108 37.3595 2.56169C37.4422 2.51258 37.4945 2.44751 37.5166 2.36648H38C37.978 2.47699 37.9367 2.57274 37.876 2.65377C37.8182 2.73481 37.7465 2.80111 37.6613 2.85267C37.5758 2.90424 37.4808 2.9423 37.3761 2.96685C37.2714 2.98895 37.1597 3 37.0413 3Z" fill="#5E5E5E"/>
<path d="M39.9943 1C40.1568 1 40.2999 1.02455 40.4236 1.07367C40.5475 1.12277 40.6519 1.19153 40.737 1.27993C40.8247 1.36587 40.8905 1.47023 40.9342 1.59301C40.9781 1.71577 41 1.85205 41 2.00184C41 2.15408 40.9781 2.2916 40.9342 2.41436C40.893 2.53468 40.8298 2.63905 40.7447 2.72744C40.6597 2.81584 40.5538 2.88337 40.4275 2.93002C40.3037 2.97668 40.1593 3 39.9943 3C39.8318 3 39.6886 2.97668 39.5649 2.93002C39.4411 2.88091 39.3366 2.81339 39.2515 2.72744C39.169 2.63905 39.1058 2.53346 39.0619 2.41069C39.0207 2.28791 39 2.15163 39 2.00184C39 1.85205 39.0207 1.71577 39.0619 1.59301C39.1058 1.47023 39.1703 1.36587 39.2554 1.27993C39.3405 1.19153 39.445 1.12277 39.5687 1.07367C39.6926 1.02455 39.8344 1 39.9943 1ZM39.9943 2.63536C40.0948 2.63536 40.18 2.6194 40.2496 2.58748C40.3218 2.55311 40.3798 2.50767 40.4236 2.4512C40.47 2.39473 40.5036 2.32842 40.5243 2.2523C40.5475 2.17618 40.559 2.09392 40.559 2.00553C40.559 1.91712 40.5475 1.83487 40.5243 1.75875C40.5036 1.68018 40.47 1.61264 40.4236 1.55617C40.3798 1.49969 40.3218 1.45549 40.2496 1.42357C40.18 1.39165 40.0948 1.37569 39.9943 1.37569C39.8963 1.37569 39.8125 1.39165 39.7428 1.42357C39.6732 1.45549 39.6151 1.49969 39.5687 1.55617C39.5223 1.61264 39.4875 1.68018 39.4643 1.75875C39.4436 1.83487 39.4333 1.91712 39.4333 2.00553C39.4333 2.09392 39.4436 2.17618 39.4643 2.2523C39.4875 2.32842 39.521 2.39473 39.5649 2.4512C39.6113 2.50767 39.6694 2.55311 39.739 2.58748C39.8111 2.6194 39.8963 2.63536 39.9943 2.63536Z" fill="#5E5E5E"/>
<path d="M41.4473 1.04089C41.45 1.06072 41.4514 1.08055 41.4514 1.10037L41.4637 1.21561C41.4664 1.23544 41.4678 1.25527 41.4678 1.27509C41.6182 1.0917 41.8152 1 42.0588 1C42.212 1 42.3351 1.0285 42.4281 1.0855C42.5211 1.1425 42.5937 1.21809 42.6456 1.31227C42.7305 1.21066 42.8261 1.13383 42.9329 1.08179C43.0424 1.02726 43.1696 1 43.3145 1C43.4376 1 43.543 1.01859 43.6305 1.05576C43.7209 1.09294 43.792 1.14498 43.844 1.2119C43.8987 1.27881 43.9384 1.35688 43.963 1.44609C43.9876 1.53284 44 1.62577 44 1.7249V3H43.532V1.88105C43.532 1.82156 43.5279 1.76208 43.5198 1.7026C43.5116 1.64312 43.4938 1.58985 43.4665 1.54275C43.4418 1.49319 43.4048 1.45354 43.3556 1.42379C43.3063 1.39158 43.2406 1.37547 43.1586 1.37547C43.0711 1.37547 42.9986 1.39529 42.9411 1.43495C42.8864 1.47212 42.8426 1.51798 42.8098 1.5725C42.7797 1.62701 42.7592 1.68898 42.7482 1.75836C42.7372 1.82529 42.7319 1.8922 42.7319 1.95911V3H42.2681V1.87361C42.2681 1.81661 42.2639 1.75961 42.2557 1.7026C42.2503 1.64312 42.2352 1.58985 42.2106 1.54275C42.186 1.49566 42.1491 1.45601 42.0999 1.42379C42.0533 1.39158 41.9876 1.37547 41.9029 1.37547C41.8152 1.37547 41.7413 1.39529 41.6813 1.43495C41.6237 1.4746 41.5786 1.52417 41.5458 1.58365C41.513 1.64065 41.491 1.70385 41.4801 1.77323C41.4692 1.84015 41.4637 1.90211 41.4637 1.95911V3H41V1.04089H41.4473Z" fill="#5E5E5E"/>
<path d="M45.4473 1.04089C45.4501 1.06072 45.4515 1.08055 45.4515 1.10037L45.4637 1.21561C45.4666 1.23544 45.4678 1.25527 45.4678 1.27509C45.6184 1.0917 45.8154 1 46.0588 1C46.212 1 46.3351 1.0285 46.4282 1.0855C46.5212 1.1425 46.5937 1.21809 46.6456 1.31227C46.7305 1.21066 46.8263 1.13383 46.9329 1.08179C47.0424 1.02726 47.1696 1 47.3147 1C47.4378 1 47.5431 1.01859 47.6307 1.05576C47.7209 1.09294 47.792 1.14498 47.8441 1.2119C47.8987 1.27881 47.9384 1.35688 47.963 1.44609C47.9876 1.53284 48 1.62577 48 1.7249V3H47.5322V1.88105C47.5322 1.82156 47.5281 1.76208 47.5198 1.7026C47.5116 1.64312 47.4939 1.58985 47.4665 1.54275C47.4418 1.49319 47.405 1.45354 47.3557 1.42379C47.3064 1.39158 47.2408 1.37547 47.1586 1.37547C47.0711 1.37547 46.9986 1.39529 46.9412 1.43495C46.8865 1.47212 46.8427 1.51798 46.8098 1.5725C46.7797 1.62701 46.7592 1.68898 46.7483 1.75836C46.7374 1.82529 46.7319 1.8922 46.7319 1.95911V3H46.2681V1.87361C46.2681 1.81661 46.264 1.75961 46.2557 1.7026C46.2504 1.64312 46.2353 1.58985 46.2107 1.54275C46.1861 1.49566 46.1491 1.45601 46.0999 1.42379C46.0534 1.39158 45.9877 1.37547 45.9029 1.37547C45.8154 1.37547 45.7415 1.39529 45.6813 1.43495C45.6239 1.4746 45.5787 1.52417 45.5458 1.58365C45.513 1.64065 45.4912 1.70385 45.4802 1.77323C45.4692 1.84015 45.4637 1.90211 45.4637 1.95911V3H45V1.04089H45.4473Z" fill="#5E5E5E"/>
<path d="M49.9957 2.62922C50.1838 2.62922 50.3177 2.58303 50.3974 2.49064C50.4773 2.39825 50.5171 2.26716 50.5171 2.09737V1H51V2.11236C51 2.27715 50.9744 2.41698 50.9231 2.53183C50.8718 2.6442 50.8019 2.73533 50.7136 2.80525C50.6254 2.87266 50.5199 2.9226 50.3974 2.95506C50.2777 2.98503 50.1438 3 49.9957 3C49.6823 3 49.4373 2.92884 49.2606 2.78653C49.0869 2.6442 49 2.41948 49 2.11236V1H49.4829V2.09737C49.4829 2.26716 49.5242 2.39825 49.6068 2.49064C49.6923 2.58053 49.8219 2.62673 49.9957 2.62922Z" fill="#5E5E5E"/>
<path d="M52 3V1.03358H52.4513L52.4761 1.30597C52.5562 1.20398 52.6556 1.12811 52.7743 1.07836C52.8958 1.02612 53.0241 1 53.1594 1C53.314 1 53.4438 1.02363 53.5487 1.0709C53.6563 1.11816 53.7433 1.18284 53.8095 1.26493C53.8786 1.34702 53.9269 1.44403 53.9544 1.55597C53.9848 1.66791 54 1.7898 54 1.92164V3H53.528V1.98508C53.528 1.9005 53.521 1.82214 53.5072 1.75C53.4962 1.67787 53.4727 1.61443 53.4368 1.5597C53.401 1.50249 53.3499 1.45772 53.2836 1.42537C53.2202 1.39304 53.1374 1.37687 53.0352 1.37687C52.9385 1.37687 52.8502 1.39801 52.7702 1.44029C52.6929 1.48259 52.6322 1.53731 52.588 1.60448C52.5466 1.67165 52.5162 1.74627 52.4969 1.82836C52.4804 1.91045 52.472 1.98881 52.472 2.06344V3H52Z" fill="#5E5E5E"/>
<path d="M55.5034 0C55.646 0 55.7633 0.0424486 55.8553 0.127345C55.9518 0.212244 56 0.32842 56 0.475872C56 0.618858 55.9518 0.7328 55.8553 0.817697C55.7633 0.902594 55.646 0.945043 55.5034 0.945043C55.3519 0.945043 55.2298 0.902594 55.1379 0.817697C55.0459 0.7328 55 0.618858 55 0.475872C55 0.32842 55.0459 0.212244 55.1379 0.127345C55.2298 0.0424486 55.3519 0 55.5034 0ZM55.1036 5V1.46783H55.8898V5H55.1036Z" fill="#5E5E5E"/>
<path d="M57.0414 3C56.865 3 56.7121 2.97668 56.5827 2.93002C56.4532 2.88091 56.3444 2.81339 56.2563 2.72744C56.1708 2.63905 56.1061 2.53468 56.0621 2.41436C56.0207 2.2916 56 2.15654 56 2.0092C56 1.86188 56.0221 1.72682 56.0662 1.60406C56.113 1.48128 56.1819 1.37569 56.2728 1.28729C56.3637 1.1989 56.4739 1.12891 56.6033 1.07735C56.7328 1.02578 56.883 1 57.0537 1C57.3044 1 57.5124 1.05157 57.6777 1.1547C57.8429 1.25537 57.9476 1.41621 57.9916 1.6372H57.5083C57.4835 1.55126 57.4298 1.48619 57.3471 1.44199C57.2645 1.39779 57.1639 1.37569 57.0455 1.37569C56.9408 1.37569 56.8513 1.39288 56.7769 1.42726C56.7025 1.46163 56.6419 1.50829 56.5951 1.56722C56.5482 1.62616 56.5138 1.6949 56.4917 1.77348C56.4724 1.8496 56.4628 1.92941 56.4628 2.01289C56.4628 2.09884 56.4739 2.17987 56.496 2.25599C56.5179 2.33211 56.5523 2.3984 56.5992 2.45489C56.646 2.50891 56.7066 2.55311 56.781 2.58748C56.8554 2.6194 56.9449 2.63536 57.0496 2.63536C57.1735 2.63536 57.2755 2.6108 57.3554 2.56169C57.438 2.51258 57.4903 2.44751 57.5124 2.36648H58C57.9779 2.47699 57.9367 2.57274 57.876 2.65377C57.8181 2.73481 57.7466 2.80111 57.6611 2.85267C57.5757 2.90424 57.4807 2.9423 57.376 2.96685C57.2713 2.98895 57.1598 3 57.0414 3Z" fill="#5E5E5E"/>
<path d="M59.5497 2.73481C59.4748 2.82566 59.3752 2.89319 59.2511 2.93739C59.127 2.97913 58.9884 3 58.8356 3C58.7143 3 58.6031 2.98773 58.5022 2.96316C58.4041 2.93862 58.3175 2.90178 58.2425 2.85267C58.1674 2.80111 58.1082 2.73849 58.065 2.66482C58.0217 2.5887 58 2.50277 58 2.407C58 2.30141 58.0246 2.21179 58.0736 2.13812C58.1227 2.062 58.1891 2.00062 58.2728 1.95396C58.3593 1.90731 58.4604 1.87293 58.5758 1.85083C58.6912 1.82628 58.8124 1.81399 58.9394 1.81399H59.5237C59.5237 1.67158 59.4863 1.56108 59.4112 1.4825C59.3362 1.40393 59.205 1.36341 59.0174 1.36096C58.9077 1.36096 58.8124 1.37692 58.7317 1.40884C58.6538 1.44077 58.6018 1.49355 58.5758 1.56722H58.0693C58.0867 1.46409 58.1256 1.37692 58.1863 1.30571C58.2496 1.2345 58.3247 1.17557 58.4112 1.12891C58.5007 1.08226 58.5988 1.04911 58.7057 1.02947C58.8154 1.00982 58.9251 1 59.0346 1C59.176 1 59.3074 1.01596 59.4286 1.04788C59.5497 1.0798 59.6551 1.13382 59.7446 1.20994C59.8457 1.29834 59.9135 1.40393 59.9481 1.5267C59.9826 1.64948 60 1.78331 60 1.92817V2.97421H59.5714L59.5497 2.73481ZM59.5237 2.11233H59.0476C58.9639 2.11233 58.8802 2.11848 58.7965 2.13076C58.7128 2.14058 58.6407 2.16636 58.5801 2.2081C58.5224 2.24739 58.4935 2.3051 58.4935 2.38122C58.4935 2.47452 58.5325 2.54573 58.6104 2.59484C58.6912 2.6415 58.7894 2.66482 58.9047 2.66482C58.9942 2.66482 59.0764 2.65501 59.1515 2.63536C59.2294 2.61571 59.2958 2.58379 59.3507 2.53959C59.4055 2.49295 59.4473 2.43524 59.4763 2.36648C59.5079 2.29527 59.5237 2.21057 59.5237 2.11233Z" fill="#5E5E5E"/>
<path d="M62.1915 0.881659H63V1.46746H62.1915V2.89349C62.1915 3.07102 62.2238 3.20316 62.2887 3.28995C62.3537 3.37674 62.4773 3.42013 62.6597 3.42013H62.9756V4H62.5988C62.2057 4 61.9239 3.92111 61.7539 3.76332C61.5875 3.60553 61.5046 3.34716 61.5046 2.98817V1.46746H61V0.881659H61.5046V0H62.1915V0.881659Z" fill="#5E5E5E"/>
<path d="M63.5034 0C63.646 0 63.7633 0.0424486 63.8553 0.127345C63.9518 0.212244 64 0.32842 64 0.475872C64 0.618858 63.9518 0.7328 63.8553 0.817697C63.7633 0.902594 63.646 0.945043 63.5034 0.945043C63.3516 0.945043 63.2298 0.902594 63.1379 0.817697C63.0459 0.7328 63 0.618858 63 0.475872C63 0.32842 63.0459 0.212244 63.1379 0.127345C63.2298 0.0424486 63.3516 0 63.5034 0ZM63.1033 5V1.46783H63.8898V5H63.1033Z" fill="#5E5E5E"/>
<path d="M64.9942 1C65.1568 1 65.2999 1.02455 65.4236 1.07367C65.5473 1.12277 65.6519 1.19153 65.737 1.27993C65.8247 1.36587 65.8905 1.47023 65.9342 1.59301C65.9781 1.71577 66 1.85205 66 2.00184C66 2.15408 65.9781 2.2916 65.9342 2.41436C65.893 2.53468 65.8298 2.63905 65.7447 2.72744C65.6595 2.81584 65.5538 2.88337 65.4275 2.93002C65.3037 2.97668 65.1593 3 64.9942 3C64.8317 3 64.6886 2.97668 64.5649 2.93002C64.441 2.88091 64.3366 2.81339 64.2515 2.72744C64.169 2.63905 64.1058 2.53346 64.0619 2.41069C64.0207 2.28791 64 2.15163 64 2.00184C64 1.85205 64.0207 1.71577 64.0619 1.59301C64.1058 1.47023 64.1703 1.36587 64.2553 1.27993C64.3405 1.19153 64.445 1.12277 64.5687 1.07367C64.6924 1.02455 64.8343 1 64.9942 1ZM64.9942 2.63536C65.0948 2.63536 65.18 2.6194 65.2496 2.58748C65.3217 2.55311 65.3798 2.50767 65.4236 2.4512C65.47 2.39473 65.5036 2.32842 65.5241 2.2523C65.5473 2.17618 65.559 2.09392 65.559 2.00553C65.559 1.91712 65.5473 1.83487 65.5241 1.75875C65.5036 1.68018 65.47 1.61264 65.4236 1.55617C65.3798 1.49969 65.3217 1.45549 65.2496 1.42357C65.18 1.39165 65.0948 1.37569 64.9942 1.37569C64.8963 1.37569 64.8125 1.39165 64.7428 1.42357C64.6732 1.45549 64.6151 1.49969 64.5687 1.55617C64.5223 1.61264 64.4874 1.68018 64.4642 1.75875C64.4436 1.83487 64.4333 1.91712 64.4333 2.00553C64.4333 2.09392 64.4436 2.17618 64.4642 2.2523C64.4874 2.32842 64.521 2.39473 64.5649 2.4512C64.6113 2.50767 64.6692 2.55311 64.7389 2.58748C64.8111 2.6194 64.8963 2.63536 64.9942 2.63536Z" fill="#5E5E5E"/>
<path d="M67 3V1.03358H67.4513L67.4762 1.30597C67.5562 1.20398 67.6556 1.12811 67.7743 1.07836C67.8958 1.02612 68.0241 1 68.1594 1C68.3139 1 68.4436 1.02363 68.5486 1.0709C68.6563 1.11816 68.7432 1.18284 68.8095 1.26493C68.8785 1.34702 68.9267 1.44403 68.9544 1.55597C68.9848 1.66791 69 1.7898 69 1.92164V3H68.528V1.98508C68.528 1.9005 68.521 1.82214 68.5072 1.75C68.4962 1.67787 68.4727 1.61443 68.4368 1.5597C68.4009 1.50249 68.3498 1.45772 68.2836 1.42537C68.22 1.39304 68.1373 1.37687 68.0352 1.37687C67.9385 1.37687 67.8502 1.39801 67.7702 1.44029C67.6928 1.48259 67.6322 1.53731 67.5879 1.60448C67.5466 1.67165 67.5162 1.74627 67.4969 1.82836C67.4803 1.91045 67.472 1.98881 67.472 2.06344V3H67Z" fill="#5E5E5E"/>
<path d="M72.5498 2.73481C72.4747 2.82566 72.3751 2.89319 72.2511 2.93739C72.127 2.97913 71.9885 3 71.8355 3C71.7142 3 71.6032 2.98773 71.5021 2.96316C71.404 2.93862 71.3173 2.90178 71.2424 2.85267C71.1673 2.80111 71.1082 2.73849 71.0649 2.66482C71.0215 2.5887 71 2.50277 71 2.407C71 2.30141 71.0245 2.21179 71.0735 2.13812C71.1226 2.062 71.1889 2.00062 71.2726 1.95396C71.3592 1.90731 71.4603 1.87293 71.5757 1.85083C71.6912 1.82628 71.8123 1.81399 71.9394 1.81399H72.5239C72.5239 1.67158 72.4863 1.56108 72.4112 1.4825C72.3363 1.40393 72.2049 1.36341 72.0173 1.36096C71.9076 1.36096 71.8123 1.37692 71.7316 1.40884C71.6537 1.44077 71.6017 1.49355 71.5757 1.56722H71.0692C71.0865 1.46409 71.1254 1.37692 71.1861 1.30571C71.2496 1.2345 71.3246 1.17557 71.4111 1.12891C71.5006 1.08226 71.5987 1.04911 71.7056 1.02947C71.8153 1.00982 71.925 1 72.0347 1C72.176 1 72.3073 1.01596 72.4286 1.04788C72.5498 1.0798 72.6551 1.13382 72.7446 1.20994C72.8456 1.29834 72.9135 1.40393 72.9481 1.5267C72.9826 1.64948 73 1.78331 73 1.92817V2.97421H72.5714L72.5498 2.73481ZM72.5239 2.11233H72.0476C71.9639 2.11233 71.8801 2.11848 71.7964 2.13076C71.7129 2.14058 71.6406 2.16636 71.58 2.2081C71.5223 2.24739 71.4935 2.3051 71.4935 2.38122C71.4935 2.47452 71.5324 2.54573 71.6103 2.59484C71.6912 2.6415 71.7893 2.66482 71.9048 2.66482C71.9941 2.66482 72.0765 2.65501 72.1515 2.63536C72.2294 2.61571 72.2957 2.58379 72.3506 2.53959C72.4054 2.49295 72.4473 2.43524 72.4762 2.36648C72.508 2.29527 72.5239 2.21057 72.5239 2.11233Z" fill="#5E5E5E"/>
<path d="M75 2.68274C74.995 2.79442 74.9923 2.90609 74.9923 3.01777C74.9923 3.12945 74.9769 3.24239 74.9462 3.35661C74.8846 3.57234 74.7732 3.73351 74.6115 3.84011C74.45 3.94671 74.2488 4 74.0077 4C73.8948 4 73.7872 3.98731 73.6846 3.96194C73.5847 3.93655 73.4936 3.89721 73.4116 3.84392C73.332 3.79061 73.2641 3.72209 73.2077 3.63833C73.1513 3.55711 73.1141 3.45813 73.0961 3.34138H73.5538C73.5744 3.43274 73.6282 3.50127 73.7154 3.54696C73.8052 3.59265 73.9039 3.61549 74.0115 3.61549C74.1347 3.61549 74.2321 3.59265 74.3039 3.54696C74.3783 3.50381 74.4347 3.4429 74.4731 3.36422C74.5116 3.28807 74.536 3.19925 74.5463 3.09771C74.5564 2.99874 74.5615 2.89341 74.5615 2.78173C74.4975 2.88072 74.4141 2.95306 74.3115 2.99874C74.2116 3.04442 74.0859 3.06853 73.9347 3.07107C73.7603 3.06853 73.6154 3.04061 73.5 2.98732C73.3872 2.93148 73.2937 2.8566 73.2193 2.7627C73.1449 2.66879 73.0898 2.56092 73.0538 2.43909C73.0179 2.31726 73 2.18782 73 2.05076C73 1.89848 73.0193 1.75888 73.0578 1.63198C73.0988 1.50508 73.159 1.39467 73.2385 1.30076C73.3179 1.20685 73.4167 1.13325 73.5346 1.07995C73.6526 1.02665 73.7897 1 73.9461 1C74.0796 1 74.1975 1.02284 74.3001 1.06853C74.4052 1.11167 74.4961 1.17893 74.5732 1.2703L74.6077 1.03046H75V2.68274ZM73.9923 1.39213C73.895 1.39213 73.8103 1.40863 73.7384 1.44163C73.6692 1.47463 73.6116 1.52031 73.5654 1.57868C73.5218 1.63706 73.4884 1.70685 73.4654 1.78808C73.4449 1.86676 73.4346 1.95178 73.4346 2.04315C73.4346 2.13451 73.4449 2.21955 73.4654 2.29823C73.4884 2.37436 73.5231 2.44162 73.5693 2.50001C73.6154 2.55838 73.673 2.60533 73.7424 2.64087C73.8141 2.67386 73.8988 2.69036 73.9962 2.69036C74.0962 2.69036 74.1809 2.67132 74.2501 2.63325C74.3218 2.59519 74.3808 2.54569 74.4269 2.48478C74.4731 2.42133 74.5077 2.35026 74.5308 2.27158C74.5539 2.1929 74.5654 2.11167 74.5654 2.02792C74.5654 1.94163 74.5539 1.85914 74.5308 1.78046C74.5077 1.70178 74.4719 1.63452 74.4231 1.57868C74.3769 1.52031 74.318 1.47463 74.2463 1.44163C74.1744 1.40863 74.0897 1.39213 73.9923 1.39213Z" fill="#5E5E5E"/>
<path d="M76.4625 2.1455C76.4679 2.2167 76.484 2.283 76.5112 2.34438C76.5381 2.40578 76.5747 2.4598 76.6206 2.50645C76.6693 2.55064 76.7274 2.58625 76.7952 2.61326C76.8654 2.64027 76.9465 2.65377 77.0386 2.65377C77.136 2.65377 77.2251 2.63781 77.3063 2.6059C77.3874 2.57398 77.447 2.51872 77.4848 2.44015H77.9595C77.9324 2.53837 77.8878 2.62309 77.8256 2.6943C77.766 2.7655 77.6944 2.82444 77.6105 2.87108C77.5294 2.91529 77.4389 2.94844 77.3388 2.97054C77.2414 2.99018 77.1372 3 77.0264 3C76.856 3 76.7059 2.97668 76.576 2.93002C76.449 2.88337 76.342 2.81584 76.2555 2.72744C76.169 2.63905 76.104 2.53468 76.0608 2.41436C76.0202 2.2916 76 2.15408 76 2.00184C76 1.85451 76.0229 1.72069 76.0688 1.60037C76.1149 1.47759 76.1811 1.37201 76.2677 1.28361C76.3569 1.19521 76.4637 1.12646 76.5882 1.07735C76.7126 1.02578 76.8546 1 77.0143 1C77.1819 1 77.3267 1.02578 77.4484 1.07735C77.5701 1.12646 77.6715 1.19398 77.7526 1.27993C77.8364 1.36587 77.8986 1.46654 77.9392 1.58196C77.9798 1.69736 78 1.82259 78 1.95765C78 2.02149 77.996 2.0841 77.9879 2.1455H76.4625ZM77.5498 1.82873C77.5443 1.6814 77.4929 1.56722 77.3955 1.48619C77.2981 1.40516 77.1724 1.36464 77.0183 1.36464C76.9318 1.36464 76.856 1.37692 76.791 1.40147C76.7262 1.42603 76.6707 1.45918 76.6247 1.50093C76.5814 1.54266 76.5464 1.59177 76.5192 1.64825C76.4922 1.70472 76.4746 1.76488 76.4665 1.82873H77.5498Z" fill="#5E5E5E"/>
<path d="M79 3V1.03358H79.4513L79.4762 1.30597C79.5562 1.20398 79.6556 1.12811 79.7743 1.07836C79.8958 1.02612 80.0241 1 80.1594 1C80.314 1 80.4438 1.02363 80.5487 1.0709C80.6563 1.11816 80.7432 1.18284 80.8095 1.26493C80.8785 1.34702 80.9269 1.44403 80.9544 1.55597C80.9848 1.66791 81 1.7898 81 1.92164V3H80.528V1.98508C80.528 1.9005 80.521 1.82214 80.5072 1.75C80.4962 1.67787 80.4727 1.61443 80.4368 1.5597C80.4009 1.50249 80.3498 1.45772 80.2837 1.42537C80.2202 1.39304 80.1373 1.37687 80.0352 1.37687C79.9385 1.37687 79.8502 1.39801 79.7702 1.44029C79.6929 1.48259 79.6322 1.53731 79.588 1.60448C79.5466 1.67165 79.5162 1.74627 79.4969 1.82836C79.4803 1.91045 79.472 1.98881 79.472 2.06344V3H79Z" fill="#5E5E5E"/>
<path d="M83.0413 3C82.8649 3 82.712 2.97668 82.5826 2.93002C82.4531 2.88091 82.3443 2.81339 82.2562 2.72744C82.1707 2.63905 82.106 2.53468 82.0619 2.41436C82.0207 2.2916 82 2.15654 82 2.0092C82 1.86188 82.022 1.72682 82.066 1.60406C82.1129 1.48128 82.1818 1.37569 82.2727 1.28729C82.3635 1.1989 82.4738 1.12891 82.6032 1.07735C82.7327 1.02578 82.8829 1 83.0538 1C83.3044 1 83.5124 1.05157 83.6777 1.1547C83.843 1.25537 83.9477 1.41621 83.9918 1.6372H83.5083C83.4835 1.55126 83.4298 1.48619 83.347 1.44199C83.2644 1.39779 83.1638 1.37569 83.0454 1.37569C82.9407 1.37569 82.8512 1.39288 82.7768 1.42726C82.7024 1.46163 82.6418 1.50829 82.595 1.56722C82.5481 1.62616 82.5137 1.6949 82.4917 1.77348C82.4725 1.8496 82.4627 1.92941 82.4627 2.01289C82.4627 2.09884 82.4738 2.17987 82.4959 2.25599C82.5178 2.33211 82.5522 2.3984 82.5991 2.45489C82.646 2.50891 82.7065 2.55311 82.7809 2.58748C82.8553 2.6194 82.9448 2.63536 83.0495 2.63536C83.1735 2.63536 83.2755 2.6108 83.3554 2.56169C83.438 2.51258 83.4904 2.44751 83.5124 2.36648H84C83.9779 2.47699 83.9367 2.57274 83.876 2.65377C83.8182 2.73481 83.7466 2.80111 83.6611 2.85267C83.5757 2.90424 83.4808 2.9423 83.3761 2.96685C83.2714 2.98895 83.1597 3 83.0413 3Z" fill="#5E5E5E"/>
<path d="M86 1V2.70166C86 2.81691 85.9973 2.93471 85.9918 3.05506C85.9892 3.17541 85.9672 3.29321 85.9261 3.40845C85.8631 3.59283 85.7495 3.73752 85.5852 3.84251C85.421 3.94751 85.2005 4 84.924 4C84.7598 4 84.601 3.97952 84.4476 3.93854C84.297 3.89757 84.1546 3.82971 84.0204 3.73495C84.0505 3.67606 84.0793 3.6146 84.1067 3.55058C84.1369 3.48912 84.167 3.42766 84.1971 3.3662C84.2874 3.43278 84.3902 3.48912 84.5051 3.53521C84.6228 3.58131 84.757 3.60435 84.9076 3.60435C85.0527 3.60435 85.1663 3.58131 85.2485 3.53521C85.3306 3.48912 85.3921 3.42638 85.4333 3.347C85.477 3.27017 85.5045 3.18054 85.5155 3.07811C85.5291 2.97823 85.5359 2.8758 85.5359 2.77081C85.4593 2.87324 85.3634 2.94623 85.2485 2.98975C85.1362 3.03329 85.0089 3.05506 84.8665 3.05506C84.705 3.05506 84.5667 3.03201 84.4517 2.98592C84.3367 2.93983 84.2464 2.8758 84.1806 2.79386C84.1149 2.71191 84.0684 2.6146 84.041 2.50192C84.0137 2.38924 84 2.26632 84 2.13317V1H84.4641V2.04866C84.4641 2.1306 84.4694 2.20998 84.4804 2.28681C84.4941 2.36107 84.5187 2.42766 84.5544 2.48655C84.5927 2.54289 84.6447 2.58898 84.7105 2.62484C84.7761 2.65814 84.8624 2.67478 84.9692 2.67478C85.0787 2.67478 85.1691 2.65429 85.2402 2.61332C85.3141 2.57235 85.3717 2.51984 85.4127 2.45583C85.4565 2.38924 85.4866 2.3137 85.5031 2.2292C85.5222 2.14469 85.5318 2.05761 85.5318 1.968V1H86Z" fill="#5E5E5E"/>
</g>
<defs>
<clipPath id="clip0_4161_5186">
<rect width="94" height="24" fill="white"/>
</clipPath>
</defs>
</svg>
