<svg width="163" height="22" viewBox="0 0 163 22" fill="none" xmlns="http://www.w3.org/2000/svg">
<path d="M20.825 7.93179V10.3683H30V13.3752H20.825V19H17V6.48022L27.7773 0L29.4314 3.26603L20.825 7.93179Z" fill="white"/>
<path d="M9.18876 7.93179V10.3683H0V13.3752H9.18876V19H13V6.48022L2.21888 0L0.574297 3.26603L9.18876 7.93179Z" fill="white"/>
<path d="M55.5851 7.11227C55.9087 7.77838 56.08 8.53964 56.08 9.41509C56.08 10.2905 55.9087 11.0708 55.5851 11.7369C55.2806 12.403 54.8048 12.974 54.2149 13.4117C53.6249 13.8685 52.9017 14.211 52.0453 14.4394C51.5314 14.5726 50.3705 14.6678 49.2857 14.7249V16.019H45.7268V14.7249C44.661 14.6678 43.5191 14.5726 43.0053 14.4394C42.1489 14.211 41.4257 13.8685 40.8167 13.4117C40.2267 12.955 39.7509 12.403 39.4274 11.7369C39.1038 11.0708 38.9516 10.2905 38.9516 9.41509C38.9516 8.53964 39.1038 7.77838 39.4274 7.11227C39.7509 6.42714 40.2267 5.87522 40.8167 5.41847C41.4257 4.98074 42.1489 4.63818 43.0053 4.4098C43.5191 4.27658 44.661 4.18142 45.7268 4.12432V2.81115H49.2857V4.12432C50.3705 4.16239 51.5314 4.27658 52.0453 4.4098C52.9017 4.63818 53.6249 4.98074 54.2149 5.41847C54.8048 5.87522 55.2806 6.42714 55.5851 7.11227ZM45.7268 12.5553V6.29392C45.1559 6.31295 44.623 6.33198 44.4327 6.37004C44.014 6.4652 43.6524 6.57939 43.3479 6.73164C43.0434 6.8839 42.7769 7.07421 42.5676 7.28356C42.3582 7.47387 42.206 7.70225 42.0727 7.93063C41.9586 8.15901 41.8634 8.40642 41.8063 8.67286C41.7682 8.92027 41.7302 9.16768 41.7302 9.41509C41.7302 9.6625 41.7682 9.92894 41.8063 10.1764C41.8634 10.4428 41.9586 10.6902 42.0727 10.9186C42.206 11.147 42.3582 11.3753 42.5676 11.5657C42.7769 11.775 43.0434 11.9463 43.3479 12.0985C43.6524 12.2508 44.014 12.365 44.4327 12.4601C44.623 12.4982 45.1559 12.5363 45.7268 12.5553ZM53.111 10.557C53.2443 10.1764 53.3014 9.79572 53.3014 9.41509C53.3014 9.03446 53.2443 8.65383 53.111 8.2732C52.9968 7.9116 52.7875 7.56903 52.464 7.26453C52.1595 6.96002 51.7408 6.71261 51.2079 6.5223C50.9224 6.42714 50.1041 6.35101 49.2857 6.31295V12.5363C50.1041 12.4792 50.9224 12.403 51.2079 12.3079C51.7408 12.1176 52.1595 11.8702 52.464 11.5657C52.7875 11.2802 52.9968 10.9376 53.111 10.557ZM75.5446 6.70314C75.9488 7.54831 76.1326 8.50372 76.1326 9.60611C76.1326 10.6901 75.9488 11.6639 75.5446 12.5091C75.1404 13.3359 74.5708 14.0341 73.8175 14.6036C73.0642 15.1732 72.164 15.5958 71.0983 15.8714C70.0327 16.1654 68.82 16.3123 67.4972 16.3123C66.1743 16.3123 64.9616 16.1654 63.896 15.8714C62.8304 15.5958 61.9117 15.1548 61.1584 14.6036C60.4051 14.0341 59.8171 13.3359 59.4129 12.5091C59.0087 11.6639 58.8066 10.6901 58.8066 9.60611C58.8066 8.50372 59.0087 7.54831 59.4129 6.70314C59.8171 5.87635 60.4051 5.15979 61.1584 4.60859C61.9117 4.03902 62.8304 3.61644 63.896 3.32247C64.9616 3.04687 66.1743 2.89988 67.4972 2.89988C68.82 2.89988 70.0327 3.04687 71.0983 3.32247C72.164 3.61644 73.0642 4.03902 73.8175 4.60859C74.5525 5.15979 75.1404 5.87635 75.5446 6.70314ZM72.4396 11.0209C72.5865 10.5615 72.66 10.0838 72.66 9.60611C72.66 9.12841 72.5865 8.65071 72.4396 8.173C72.2926 7.71367 72.017 7.27271 71.6311 6.90525C71.2453 6.51941 70.7125 6.22544 70.051 5.98659C69.3712 5.74774 68.5261 5.6375 67.4972 5.6375C66.799 5.6375 66.1927 5.69261 65.6782 5.80286C65.1454 5.89472 64.686 6.06008 64.3002 6.24381C63.9327 6.42754 63.602 6.6664 63.3448 6.92362C63.0876 7.18085 62.8855 7.45645 62.7201 7.75042C62.5731 8.02602 62.4629 8.33836 62.3894 8.65071C62.3343 8.98142 62.2975 9.29377 62.2975 9.60611C62.2975 9.91846 62.3343 10.2308 62.3894 10.5615C62.4629 10.8739 62.5731 11.1862 62.7201 11.4802C62.8855 11.7742 63.0876 12.0498 63.3448 12.307C63.602 12.5458 63.9327 12.7847 64.3002 12.9684C64.686 13.1521 65.1454 13.2991 65.6782 13.4094C66.1927 13.5196 66.799 13.5747 67.4972 13.5747C68.5261 13.5747 69.3712 13.4461 70.051 13.2256C70.7125 12.9868 71.2453 12.6744 71.6311 12.307C72.017 11.9211 72.2926 11.4986 72.4396 11.0209ZM92.8512 5.85797C93.0349 6.3908 93.1268 6.97874 93.1268 7.6218C93.1268 8.24649 93.0349 8.83444 92.8512 9.36726C92.6675 9.91846 92.3551 10.3778 91.9509 10.7636C91.5467 11.1495 91.0139 11.4434 90.3525 11.6639C89.691 11.8844 88.901 11.9763 87.9639 11.9763H82.2499V16.0184H78.8141V3.26735H87.9639C88.901 3.26735 89.691 3.37759 90.3525 3.57969C91.0139 3.80017 91.5467 4.09414 91.9509 4.47998C92.3551 4.86582 92.6675 5.32515 92.8512 5.85797ZM89.5257 8.43023C89.5991 8.22812 89.6543 7.9709 89.6543 7.67692C89.6543 7.38295 89.5991 7.12573 89.5257 6.90525C89.4338 6.68477 89.3052 6.51941 89.1031 6.3908C88.9193 6.24381 88.6621 6.15195 88.3498 6.07845C88.0374 6.02333 87.67 5.98659 87.2106 5.98659H82.2499V9.2754H87.2106C87.67 9.2754 88.0374 9.23865 88.3498 9.18353C88.6621 9.12841 88.9193 9.05492 89.1031 8.9263C89.3052 8.79769 89.4338 8.63233 89.5257 8.43023ZM100.419 6.83176C99.9967 7.21759 99.6843 7.64018 99.519 8.11788C99.3536 8.59559 99.2617 9.09166 99.2617 9.60611C99.2617 9.93683 99.2985 10.2676 99.372 10.5983C99.4455 10.929 99.5741 11.2413 99.7395 11.5353C99.9232 11.8293 100.144 12.1049 100.419 12.3621C100.695 12.601 101.044 12.8214 101.467 12.9868C101.871 13.1705 102.348 13.3175 102.918 13.4094C103.469 13.5196 104.094 13.5747 104.829 13.5747C105.527 13.5747 106.17 13.5196 106.721 13.4277C107.291 13.3543 107.805 13.2256 108.283 13.0787C108.742 12.9317 109.165 12.7663 109.569 12.5826C109.955 12.3805 110.322 12.1967 110.672 11.9946V15.0997C110.231 15.2834 109.79 15.4488 109.33 15.5958C108.871 15.7428 108.412 15.8714 107.934 15.9816C107.438 16.0919 106.942 16.1654 106.409 16.2205C105.876 16.2756 105.288 16.3123 104.682 16.3123C103.377 16.3123 102.183 16.1654 101.099 15.8898C100.015 15.6142 99.0596 15.1916 98.288 14.6404C97.4979 14.0708 96.8732 13.3726 96.4323 12.5458C95.9913 11.7007 95.7892 10.7269 95.7892 9.60611C95.7892 8.48535 95.9913 7.51157 96.4323 6.6664C96.8732 5.8396 97.4979 5.14142 98.288 4.57185C99.0596 4.02065 100.015 3.59807 101.099 3.32247C102.183 3.0285 103.377 2.89988 104.682 2.89988C105.288 2.89988 105.876 2.91826 106.409 2.97338C106.942 3.0285 107.438 3.12036 107.934 3.2306C108.412 3.34084 108.871 3.46945 109.33 3.61644C109.79 3.76343 110.231 3.92879 110.672 4.11252V7.19922C110.322 7.01549 109.955 6.83176 109.569 6.62965C109.165 6.44592 108.742 6.28056 108.283 6.13357C107.805 5.98659 107.291 5.85797 106.721 5.76611C106.17 5.65587 105.527 5.61912 104.829 5.61912C103.745 5.61912 102.845 5.72936 102.128 5.94984C101.411 6.17032 100.842 6.46429 100.419 6.83176ZM123.848 3.26735L130.517 16.0184H126.677L125.483 13.5931H118.391L117.178 16.0184H113.356L120.008 3.26735H123.848ZM119.622 11.1127H124.27L121.955 6.42754L119.622 11.1127ZM148.342 9.4775L155.452 16.0184H150.602L145.788 11.5904V16.0184H142.316V11.5904L137.502 16.0184H132.651L139.762 9.4775L133.019 3.26735H137.851L142.316 7.36458V3.26735H145.788V7.36458L150.253 3.26735H155.085L148.342 9.4775Z" fill="white"/>
</svg>
