<svg width="522" height="74" viewBox="0 0 522 74" fill="none" xmlns="http://www.w3.org/2000/svg">
<g clip-path="url(#clip0_724_838)">
<path d="M67.9463 26.7176V34.925H99V45.0532H67.9463V64H55V21.8281L91.4771 0L97.0756 11.0014L67.9463 26.7176Z" fill="#111111"/>
<path d="M30.3936 26.3001V34.3793H0V44.3492H30.3936V63H43V21.487L7.33936 0L1.8996 10.8295L30.3936 26.3001Z" fill="#111111"/>
</g>
<path d="M186.249 25.5605C187.32 27.7669 187.888 30.2885 187.888 33.1883C187.888 36.0881 187.32 38.6728 186.249 40.8791C185.24 43.0855 183.664 44.9767 181.71 46.4266C179.755 47.9396 177.36 49.0743 174.523 49.8308C172.821 50.272 168.976 50.5872 165.382 50.7764V55.063H153.594V50.7764C150.064 50.5872 146.281 50.272 144.579 49.8308C141.743 49.0743 139.347 47.9396 137.33 46.4266C135.376 44.9137 133.8 43.0855 132.728 40.8791C131.656 38.6728 131.152 36.0881 131.152 33.1883C131.152 30.2885 131.656 27.7669 132.728 25.5605C133.8 23.2911 135.376 21.463 137.33 19.95C139.347 18.5001 141.743 17.3654 144.579 16.6089C146.281 16.1676 150.064 15.8524 153.594 15.6633V11.3136H165.382V15.6633C168.976 15.7894 172.821 16.1676 174.523 16.6089C177.36 17.3654 179.755 18.5001 181.71 19.95C183.664 21.463 185.24 23.2911 186.249 25.5605ZM153.594 43.5898V22.8498C151.703 22.9129 149.938 22.9759 149.307 23.102C147.92 23.4172 146.723 23.7954 145.714 24.2997C144.705 24.8041 143.823 25.4345 143.129 26.1279C142.436 26.7583 141.932 27.5148 141.49 28.2712C141.112 29.0277 140.797 29.8472 140.608 30.7298C140.482 31.5493 140.356 32.3688 140.356 33.1883C140.356 34.0078 140.482 34.8904 140.608 35.7099C140.797 36.5925 141.112 37.412 141.49 38.1684C141.932 38.9249 142.436 39.6814 143.129 40.3118C143.823 41.0052 144.705 41.5726 145.714 42.0769C146.723 42.5812 147.92 42.9594 149.307 43.2746C149.938 43.4007 151.703 43.5268 153.594 43.5898ZM178.053 36.9707C178.495 35.7099 178.684 34.4491 178.684 33.1883C178.684 31.9275 178.495 30.6667 178.053 29.4059C177.675 28.2082 176.982 27.0735 175.91 26.0649C174.901 25.0562 173.515 24.2367 171.749 23.6063C170.804 23.2911 168.093 23.039 165.382 22.9129V43.5268C168.093 43.3377 170.804 43.0855 171.749 42.7703C173.515 42.1399 174.901 41.3204 175.91 40.3118C176.982 39.3662 177.675 38.2315 178.053 36.9707ZM252.362 24.2053C253.701 27.0049 254.309 30.1695 254.309 33.8211C254.309 37.4117 253.701 40.6373 252.362 43.4368C251.023 46.1754 249.136 48.4881 246.641 50.3747C244.146 52.2613 241.164 53.6611 237.634 54.574C234.104 55.5477 230.087 56.0346 225.706 56.0346C221.324 56.0346 217.307 55.5477 213.777 54.574C210.247 53.6611 207.204 52.2005 204.709 50.3747C202.214 48.4881 200.267 46.1754 198.928 43.4368C197.589 40.6373 196.919 37.4117 196.919 33.8211C196.919 30.1695 197.589 27.0049 198.928 24.2053C200.267 21.4667 202.214 19.0932 204.709 17.2674C207.204 15.3808 210.247 13.981 213.777 13.0073C217.307 12.0944 221.324 11.6075 225.706 11.6075C230.087 11.6075 234.104 12.0944 237.634 13.0073C241.164 13.981 244.146 15.3808 246.641 17.2674C249.075 19.0932 251.023 21.4667 252.362 24.2053ZM242.077 38.5072C242.564 36.9857 242.807 35.4034 242.807 33.8211C242.807 32.2387 242.564 30.6564 242.077 29.0741C241.59 27.5526 240.677 26.092 239.399 24.8748C238.121 23.5968 236.356 22.623 234.165 21.8318C231.913 21.0407 229.114 20.6755 225.706 20.6755C223.393 20.6755 221.385 20.8581 219.681 21.2233C217.916 21.5275 216.394 22.0753 215.116 22.6839C213.899 23.2925 212.803 24.0836 211.951 24.9357C211.099 25.7877 210.43 26.7006 209.882 27.6743C209.395 28.5872 209.03 29.6218 208.787 30.6564C208.604 31.7519 208.482 32.7865 208.482 33.8211C208.482 34.8557 208.604 35.8903 208.787 36.9857C209.03 38.0203 209.395 39.0549 209.882 40.0287C210.43 41.0024 211.099 41.9153 211.951 42.7673C212.803 43.5585 213.899 44.3497 215.116 44.9583C216.394 45.5669 217.916 46.0537 219.681 46.4189C221.385 46.784 223.393 46.9666 225.706 46.9666C229.114 46.9666 231.913 46.5406 234.165 45.8103C236.356 45.0191 238.121 43.9845 239.399 42.7673C240.677 41.4893 241.59 40.0895 242.077 38.5072ZM309.688 21.4058C310.296 23.1707 310.601 25.1182 310.601 27.2483C310.601 29.3175 310.296 31.265 309.688 33.0299C309.079 34.8557 308.044 36.3771 306.706 37.6552C305.367 38.9332 303.602 39.907 301.411 40.6373C299.22 41.3676 296.603 41.6719 293.499 41.6719H274.572V55.0609H263.191V12.8247H293.499C296.603 12.8247 299.22 13.1899 301.411 13.8593C303.602 14.5896 305.367 15.5634 306.706 16.8414C308.044 18.1194 309.079 19.6409 309.688 21.4058ZM298.672 29.9261C298.916 29.2566 299.098 28.4046 299.098 27.4309C299.098 26.4571 298.916 25.6051 298.672 24.8748C298.368 24.1445 297.942 23.5968 297.272 23.1707C296.664 22.6839 295.812 22.3796 294.777 22.1361C293.743 21.9536 292.525 21.8318 291.004 21.8318H274.572V32.7256H291.004C292.525 32.7256 293.743 32.6039 294.777 32.4213C295.812 32.2387 296.664 31.9953 297.272 31.5693C297.942 31.1433 298.368 30.5955 298.672 29.9261ZM334.756 24.6314C333.356 25.9094 332.322 27.3092 331.774 28.8915C331.226 30.4738 330.922 32.117 330.922 33.8211C330.922 34.9165 331.043 36.012 331.287 37.1075C331.53 38.2029 331.956 39.2375 332.504 40.2113C333.113 41.185 333.843 42.0979 334.756 42.9499C335.669 43.7411 336.825 44.4714 338.225 45.0191C339.564 45.6277 341.146 46.1146 343.033 46.4189C344.858 46.784 346.928 46.9666 349.362 46.9666C351.675 46.9666 353.805 46.784 355.631 46.4797C357.517 46.2363 359.221 45.8103 360.804 45.3234C362.325 44.8365 363.725 44.2888 365.064 43.6802C366.342 43.0108 367.559 42.4022 368.715 41.7327V52.0179C367.255 52.6265 365.794 53.1742 364.273 53.6611C362.751 54.148 361.23 54.574 359.647 54.9391C358.004 55.3043 356.361 55.5477 354.596 55.7303C352.831 55.9129 350.884 56.0346 348.875 56.0346C344.554 56.0346 340.598 55.5477 337.008 54.6348C333.417 53.722 330.252 52.3222 327.696 50.4964C325.079 48.6098 323.01 46.2972 321.549 43.5585C320.089 40.759 319.419 37.5335 319.419 33.8211C319.419 30.1087 320.089 26.8831 321.549 24.0836C323.01 21.345 325.079 19.0323 327.696 17.1457C330.252 15.3199 333.417 13.9202 337.008 13.0073C340.598 12.0335 344.554 11.6075 348.875 11.6075C350.884 11.6075 352.831 11.6684 354.596 11.851C356.361 12.0335 358.004 12.3378 359.647 12.703C361.23 13.0681 362.751 13.4942 364.273 13.981C365.794 14.4679 367.255 15.0156 368.715 15.6242V25.8485C367.559 25.2399 366.342 24.6314 365.064 23.9619C363.725 23.3533 362.325 22.8056 360.804 22.3187C359.221 21.8318 357.517 21.4058 355.631 21.1015C353.805 20.7364 351.675 20.6147 349.362 20.6147C345.771 20.6147 342.789 20.9798 340.416 21.7101C338.042 22.4404 336.156 23.4142 334.756 24.6314ZM412.359 12.8247L434.451 55.0609H421.731L417.776 47.0275H394.284L390.267 55.0609H377.609L399.64 12.8247H412.359ZM398.362 38.8115H413.759L406.091 23.2925L398.362 38.8115ZM493.494 33.3951L517.046 55.0609H500.979L485.034 40.3938V55.0609H473.532V40.3938L457.587 55.0609H441.52L465.073 33.3951L442.737 12.8247H458.743L473.532 26.3963V12.8247H485.034V26.3963L499.823 12.8247H515.829L493.494 33.3951Z" fill="#111111"/>
<defs>
<clipPath id="clip0_724_838">
<rect width="520" height="63" fill="white"/>
</clipPath>
</defs>
</svg>
