<svg width="39" height="39" viewBox="0 0 39 39" fill="none" xmlns="http://www.w3.org/2000/svg">
<g clip-path="url(#clip0_841_10073)">
<mask id="mask0_841_10073" style="mask-type:luminance" maskUnits="userSpaceOnUse" x="0" y="0" width="39" height="39">
<path d="M29.5455 0H9.45455C4.23294 0 0 4.23294 0 9.45455V29.5455C0 34.7671 4.23294 39 9.45455 39H29.5455C34.7671 39 39 34.7671 39 29.5455V9.45455C39 4.23294 34.7671 0 29.5455 0Z" fill="white"/>
</mask>
<g mask="url(#mask0_841_10073)">
<path d="M39 0H0V39H39V0Z" fill="#222222"/>
<path d="M39 19.5C49.7696 19.5 58.5 10.7696 58.5 7.62939e-06C58.5 -10.7696 49.7696 -19.5 39 -19.5C28.2304 -19.5 19.5 -10.7696 19.5 7.62939e-06C19.5 10.7696 28.2304 19.5 39 19.5Z" fill="#222222"/>
<path d="M24.09 18.6096H12.568V14.0503H24.09C24.7631 14.0503 25.231 14.1676 25.4659 14.3724C25.7007 14.5773 25.8462 14.9572 25.8462 15.5123V17.1494C25.8462 17.7342 25.7007 18.1141 25.4659 18.319C25.231 18.5238 24.7631 18.6114 24.09 18.6114V18.6096ZM24.8805 9.75174H7.68164V29.25H12.568V22.9064H21.5732L25.8462 29.25H31.318L26.6069 22.8767C28.3438 22.6193 29.1237 22.087 29.7669 21.2098C30.4101 20.3326 30.7327 18.9301 30.7327 17.0583V15.5963C30.7327 14.4862 30.6151 13.609 30.4101 12.9367C30.205 12.2643 29.8546 11.6795 29.3568 11.1542C28.831 10.657 28.2456 10.3068 27.5428 10.0722C26.8399 9.86733 25.9619 9.75 24.8805 9.75V9.75174Z" fill="white"/>
</g>
</g>
<defs>
<clipPath id="clip0_841_10073">
<rect width="39" height="39" rx="19.5" fill="white"/>
</clipPath>
</defs>
</svg>
