<svg width="15" height="15" viewBox="0 0 15 15" fill="none" xmlns="http://www.w3.org/2000/svg">
<path d="M0 7.51375C0 8.63655 0.675682 9.44169 1.18432 9.94981C1.22523 9.99037 1.26545 10.0296 1.30568 10.0681C1.30364 10.1231 1.30295 10.1788 1.30295 10.2351C1.30295 12.4677 2.53159 13.6971 4.76114 13.6971C4.82114 13.6971 4.87977 13.6971 4.93636 13.695C4.97523 13.7356 5.01409 13.7768 5.055 13.8174C5.85341 14.6143 6.65523 15 7.50886 15C8.35091 15 9.14727 14.6136 9.94227 13.8201C9.98455 13.7782 10.0248 13.7362 10.0643 13.695C10.1216 13.6964 10.1802 13.6977 10.2389 13.6977C12.4691 13.6977 13.697 12.4684 13.697 10.2358C13.697 10.1788 13.697 10.1224 13.695 10.0674C13.7352 10.0296 13.7748 9.99106 13.815 9.95118C14.6011 9.16598 15 8.33608 15 7.48556C15 6.36276 14.3243 5.55762 13.8157 5.04951C13.7748 5.00894 13.7352 4.96975 13.6943 4.93124C13.6964 4.87624 13.697 4.82055 13.697 4.76416C13.697 2.53163 12.4684 1.30226 10.2389 1.30226C10.1789 1.30226 10.1202 1.30226 10.063 1.30432C10.0248 1.26375 9.98591 1.22318 9.945 1.18262C9.14659 0.385726 8.34477 0 7.49182 0C6.63886 0 5.86364 0.374725 5.05773 1.17987C5.01545 1.22181 4.97523 1.26375 4.93636 1.30501C4.87841 1.30363 4.82045 1.30226 4.76114 1.30226C2.53091 1.30226 1.30295 2.53163 1.30295 4.76416C1.30295 4.82123 1.30295 4.87761 1.305 4.93262C1.26477 4.97044 1.22523 5.00894 1.185 5.04882C0.398864 5.83402 0 6.66392 0 7.51444V7.51375ZM9.53182 8.2632C9.53182 7.69389 9.99 7.23185 10.5545 7.23185C11.1191 7.23185 11.5773 7.69389 11.5773 8.2632C11.5773 8.83251 11.1191 9.29455 10.5545 9.29455C9.99 9.29455 9.53182 8.83251 9.53182 8.2632ZM9.36818 4.41488C9.68727 4.61152 9.79091 5.03575 9.59455 5.36029L6.56864 10.3562C6.37227 10.68 5.95295 10.7825 5.63182 10.5851C5.58477 10.5562 5.54182 10.5219 5.50432 10.484C5.28682 10.2647 5.23773 9.91612 5.40546 9.6404L8.43136 4.64453C8.62773 4.32068 9.04705 4.21755 9.36818 4.41488ZM3.42273 6.74367C3.42273 6.17437 3.88091 5.71232 4.44545 5.71232C5.01 5.71232 5.46818 6.17437 5.46818 6.74367C5.46818 7.31298 5.01 7.77503 4.44545 7.77503C3.88091 7.77503 3.42273 7.31298 3.42273 6.74367Z" fill="#024BCF"/>
</svg>
