<svg width="16" height="16" viewBox="0 0 16 16" fill="none" xmlns="http://www.w3.org/2000/svg">
<g clip-path="url(#clip0_742_1081)">
<path d="M3 7.33329H0.666667C0.298 7.33329 0 7.03463 0 6.66663C0 6.29863 0.298 5.99996 0.666667 5.99996H3C3.36867 5.99996 3.66667 6.29863 3.66667 6.66663C3.66667 7.03463 3.36867 7.33329 3 7.33329ZM6.76933 1.33329C6.76933 0.965293 6.47133 0.666626 6.10267 0.666626H0.666667C0.298 0.666626 0 0.965293 0 1.33329C0 1.70129 0.298 1.99996 0.666667 1.99996H6.10267C6.47133 1.99996 6.76933 1.70129 6.76933 1.33329ZM5.436 3.99996C5.436 3.63196 5.138 3.33329 4.76933 3.33329H0.666667C0.298 3.33329 0 3.63196 0 3.99996C0 4.36796 0.298 4.66663 0.666667 4.66663H4.76933C5.138 4.66663 5.436 4.36796 5.436 3.99996ZM10.038 13.3333C10.0153 13.4413 9.99933 13.552 9.99933 13.6666C9.99933 14.5873 10.7453 15.3333 11.666 15.3333C12.5867 15.3333 13.3327 14.5873 13.3327 13.6666C13.3327 13.552 13.3167 13.4413 13.294 13.3333H10.0373H10.038ZM9.99933 12V3.99996C9.99933 2.66063 9.20933 1.50596 8.06933 0.975959C8.09067 1.09196 8.102 1.21129 8.102 1.33329C8.102 2.25463 7.476 3.03129 6.62733 3.26263C6.718 3.49063 6.76867 3.73929 6.76867 3.99996C6.76867 5.06463 5.93267 5.93663 4.88333 5.99663C4.958 6.20596 4.99933 6.43196 4.99933 6.66663C4.99933 7.76929 4.102 8.66663 2.99933 8.66663H0.666667C0.432667 8.66663 0.208667 8.62596 0 8.55196V9.33329C0 10.806 1.194 12 2.66667 12H10H9.99933ZM2.70467 13.3333C2.682 13.4413 2.666 13.552 2.666 13.6666C2.666 14.5873 3.412 15.3333 4.33267 15.3333C5.25333 15.3333 5.99933 14.5873 5.99933 13.6666C5.99933 13.552 5.98333 13.4413 5.96067 13.3333H2.70467ZM11.3327 12H13.3327C14.8053 12 15.9993 10.806 15.9993 9.33329V8.66663H11.3327V12ZM12.666 3.33329H11.3327V7.33329H15.9993V6.66663C15.9993 4.82596 14.5067 3.33329 12.666 3.33329Z" fill="#024BCF"/>
</g>
<defs>
<clipPath id="clip0_742_1081">
<rect width="16" height="16" fill="white"/>
</clipPath>
</defs>
</svg>
