<svg width="19" height="19" viewBox="0 0 19 19" fill="none" xmlns="http://www.w3.org/2000/svg">
<rect x="3" y="4" width="12" height="12" fill="white"/>
<path fill-rule="evenodd" clip-rule="evenodd" d="M9.5 0C4.25363 0 0 4.25363 0 9.5C0 14.7464 4.25363 19 9.5 19C14.7464 19 19 14.7464 19 9.5C19 4.25363 14.7464 0 9.5 0ZM13.9033 6.46079C13.7608 7.96258 13.1417 11.6082 12.8274 13.2905C12.6944 14.003 12.4315 14.2413 12.1782 14.2642C11.6264 14.3149 11.2076 13.8993 10.6733 13.5494C9.83725 13.0015 9.36462 12.6603 8.55317 12.1252C7.61504 11.5069 8.22304 11.1672 8.75742 10.6123C8.89754 10.4666 11.328 8.2555 11.3755 8.05521C11.381 8.02988 11.3873 7.93646 11.3311 7.88738C11.2749 7.83829 11.1934 7.85492 11.1348 7.86838C11.0509 7.88738 9.71533 8.77008 7.12738 10.5165C6.74817 10.777 6.40458 10.9036 6.09663 10.8973C5.75779 10.8902 5.10546 10.7057 4.62017 10.5474C4.02563 10.3542 3.55221 10.2513 3.59338 9.92354C3.61475 9.75254 3.84988 9.57758 4.29954 9.39867C7.06879 8.19217 8.91575 7.39654 9.83963 7.01179C12.4783 5.91454 13.0261 5.72375 13.3839 5.71742C13.832 5.71108 13.9397 6.08079 13.9033 6.46079Z" fill="#1A1A36"/>
</svg>
