<svg width="19" height="19" viewBox="0 0 19 19" fill="none" xmlns="http://www.w3.org/2000/svg">
<circle cx="9.5" cy="9.5" r="9.5" fill="#1A1A36"/>
<ellipse cx="9.5" cy="9.50195" rx="6.5" ry="5.5" fill="white"/>
<path d="M15.9475 3.05445C14.895 2.00195 13.2006 2.00195 9.8125 2.00195H9.1875C5.79938 2.00195 4.105 2.00195 3.0525 3.05445C2 4.10695 2 5.80133 2 9.18945V9.81445C2 13.2026 2 14.8963 3.0525 15.9495C4.105 17.0026 5.79938 17.002 9.1875 17.002H9.8125C13.2006 17.002 14.8944 17.002 15.9475 15.9495C17 14.897 17 13.2026 17 9.81445V9.18945C17 5.80133 17 4.10695 15.9475 3.05445ZM14.1894 12.627H13.0956C12.6788 12.627 12.5562 12.2945 11.8144 11.5526C11.165 10.927 10.8869 10.8457 10.725 10.8457C10.5044 10.8457 10.4388 10.9082 10.4388 11.2207V12.2013C10.4388 12.4701 10.3531 12.627 9.6575 12.627C8.49875 12.627 7.225 11.9232 6.32063 10.6257C4.96438 8.72508 4.59375 7.2882 4.59375 6.99883C4.59375 6.83633 4.65625 6.68945 4.96875 6.68945H6.06313C6.3425 6.68945 6.4475 6.81195 6.5525 7.11445C7.0875 8.67258 7.99 10.0345 8.36063 10.0345C8.49937 10.0345 8.56313 9.97008 8.56313 9.61758V8.00695C8.5225 7.2657 8.12813 7.20445 8.12813 6.9407C8.12813 6.81883 8.2325 6.68945 8.40625 6.68945H10.1256C10.3575 6.68945 10.4381 6.8132 10.4381 7.09133V9.2582C10.4381 9.48945 10.5388 9.5707 10.6081 9.5707C10.7475 9.5707 10.8631 9.48945 11.1181 9.23445C11.9062 8.35383 12.4625 6.9982 12.4625 6.9982C12.5325 6.8357 12.66 6.68883 12.9388 6.68883H14.0325C14.3631 6.68883 14.4331 6.85883 14.3631 7.0907C14.2238 7.7282 12.8913 9.60508 12.8913 9.60508C12.775 9.7907 12.7288 9.8832 12.8913 10.092C13.0075 10.2545 13.3894 10.5788 13.6444 10.8801C14.1144 11.4088 14.4688 11.8545 14.5675 12.162C14.6587 12.4707 14.5019 12.627 14.1894 12.627Z" fill="#1A1A36"/>
</svg>
