<svg width="39" height="39" viewBox="0 0 39 39" fill="none" xmlns="http://www.w3.org/2000/svg">
<g clip-path="url(#clip0_841_10081)">
<mask id="mask0_841_10081" style="mask-type:luminance" maskUnits="userSpaceOnUse" x="0" y="0" width="39" height="39">
<path d="M29.5455 0H9.45455C4.23294 0 0 4.23294 0 9.45455V29.5455C0 34.7671 4.23294 39 9.45455 39H29.5455C34.7671 39 39 34.7671 39 29.5455V9.45455C39 4.23294 34.7671 0 29.5455 0Z" fill="white"/>
</mask>
<g mask="url(#mask0_841_10081)">
<path d="M39 0H0V39H39V0Z" fill="#222222"/>
<path d="M39 19.5C49.7696 19.5 58.5 10.7696 58.5 7.62939e-06C58.5 -10.7696 49.7696 -19.5 39 -19.5C28.2304 -19.5 19.5 -10.7696 19.5 7.62939e-06C19.5 10.7696 28.2304 19.5 39 19.5Z" fill="#222222"/>
</g>
<g clip-path="url(#clip1_841_10081)">
<path d="M32.4271 12.9703C32.1273 11.7996 31.2528 10.8842 30.132 10.5675C28.107 10 19.9855 10 19.9855 10C19.9855 10 11.865 10 9.83988 10.5675C8.71869 10.8839 7.84383 11.7994 7.5438 12.9703C7 15.0884 7 19.5111 7 19.5111C7 19.5111 7 23.9329 7.5438 26.0519C7.84397 27.2222 8.71834 28.1373 9.83896 28.4538C11.8641 29.0222 19.9855 29.0222 19.9855 29.0222C19.9855 29.0222 28.107 29.0222 30.1311 28.4547C31.2523 28.1384 32.1272 27.2228 32.4271 26.0519C32.971 23.9329 32.971 19.5111 32.971 19.5111C32.971 19.5111 32.9682 15.0903 32.4271 12.9703Z" fill="white"/>
<path d="M17.3945 23.6046L24.1417 19.5291L17.3945 15.4507V23.6046ZM44.4034 17.3946C43.9388 19.8619 43.5867 22.8754 43.4006 24.1172H43.2696C43.1222 22.8351 42.7673 19.8427 42.2871 17.413L41.098 11.3723H37.4765V27.6762H39.7237V14.2368L39.9459 15.4911L42.229 27.6733H44.4762L46.7225 15.492L46.964 14.231V27.6752H49.2112V11.3723H45.5528L44.4043 17.3946H44.4034ZM55.2845 25.2263C55.079 25.6736 54.6348 25.9852 54.1876 25.9852C53.6678 25.9852 53.4632 25.5572 53.4632 24.5088V15.7642H50.8998V24.6626C50.8998 26.8596 51.5856 27.8686 53.1102 27.8686C54.149 27.8686 54.985 27.3829 55.562 26.2171H55.6173L55.8404 27.6733H57.8451V15.7623H55.2827V25.2273H55.2845V25.2263ZM62.8051 20.466C61.969 19.8243 61.4501 19.3973 61.4501 18.4642C61.4501 17.8044 61.7468 17.4351 62.452 17.4351C63.1774 17.4351 63.4189 17.9612 63.4355 19.7484L65.5905 19.6522C65.7564 16.7569 64.8486 15.5517 62.4889 15.5517C60.2979 15.5517 59.2204 16.5809 59.2204 18.699C59.2204 20.6227 60.1117 21.498 61.5588 22.6427C62.8032 23.6536 63.5277 24.2172 63.5277 25.032C63.5277 25.6533 63.1553 26.0804 62.5055 26.0804C61.745 26.0804 61.298 25.3225 61.4114 24.0028L59.2388 24.0412C58.906 26.5085 59.8527 27.9465 62.3774 27.9465C64.5877 27.9465 65.738 26.8778 65.738 24.7415C65.7399 22.7976 64.8098 22.0213 62.8051 20.466ZM67.151 15.7642H69.6029V27.6762H67.151V15.7642ZM68.3954 11.0626C67.4479 11.0626 67.0036 11.431 67.0036 12.7132C67.0036 14.0348 67.4479 14.3638 68.3954 14.3638C69.3614 14.3638 69.7872 14.0329 69.7872 12.7132C69.7872 11.4896 69.3614 11.0626 68.3954 11.0626ZM77.846 23.3814L75.5997 23.265C75.5997 25.3629 75.3776 26.0429 74.6162 26.0429C73.8548 26.0429 73.7249 25.2849 73.7249 22.8178V20.5034C73.7249 18.1141 73.8724 17.3562 74.6356 17.3562C75.3407 17.3562 75.5269 18.0737 75.5269 20.2909L77.7548 20.137C77.9023 18.2901 77.6801 17.0272 76.9934 16.3087C76.491 15.7835 75.7306 15.5325 74.6715 15.5325C72.1828 15.5325 71.1615 16.931 71.1615 20.8565V22.5282C71.1615 26.5701 72.0335 27.8715 74.5775 27.8715C75.6559 27.8715 76.397 27.6397 76.8994 27.1337C77.6239 26.4286 77.9023 25.2254 77.846 23.3804V23.3814Z" fill="#222222"/>
</g>
</g>
<defs>
<clipPath id="clip0_841_10081">
<rect width="39" height="39" rx="19.5" fill="white"/>
</clipPath>
<clipPath id="clip1_841_10081">
<rect width="26" height="19" fill="white" transform="translate(7 10)"/>
</clipPath>
</defs>
</svg>
