<svg width="19" height="20" viewBox="0 0 19 20" fill="none" xmlns="http://www.w3.org/2000/svg">
<path d="M7.28144 7.46894C8.69632 6.06097 8.95169 3.949 9 0.1875C4.09279 0.332439 0.15184 4.28029 0 9.1875C3.7546 9.13919 5.87347 8.88382 7.28144 7.47584V7.46894Z" fill="#1A1A36"/>
<path d="M0 9.28319C0 9.37512 0 9.47411 0 9.56603C0 9.65796 0 9.75695 0 9.84888C3.8481 9.89838 6.01973 10.16 7.46277 11.6025C8.90581 13.045 9.17461 15.2088 9.21705 19.0625C9.30901 19.0625 9.40804 19.0625 9.5 19.0625C9.59196 19.0625 9.69099 19.0625 9.78295 19.0625C9.83246 15.2158 10.0942 13.045 11.5372 11.6025C12.9803 10.16 15.1448 9.8913 19 9.84888C19 9.75695 19 9.65796 19 9.56603C19 9.47411 19 9.37512 19 9.28319C15.1519 9.23369 12.9803 8.97206 11.5372 7.52956C10.1013 6.07999 9.83954 3.91624 9.79002 0.0625C9.69806 0.0625 9.59903 0.0625 9.50707 0.0625C9.41511 0.0625 9.31608 0.0625 9.22412 0.0625C9.17461 3.90917 8.91288 6.07999 7.46984 7.52249C6.02681 8.96499 3.85517 9.23369 0 9.28319Z" fill="white"/>
<path d="M10 0C10.0483 3.75748 10.3039 5.87797 11.713 7.28703C13.122 8.69609 15.2356 8.95856 19 9C18.8619 4.09593 14.911 0.14505 10 0Z" fill="#1A1A36"/>
<path d="M0 9.96875C0.14505 14.8728 4.09593 18.8237 9 18.9688C8.95165 15.2113 8.69609 13.0908 7.28703 11.6817C5.87797 10.2727 3.76439 10.0171 0 9.96875Z" fill="#1A1A36"/>
<path d="M11.713 11.6817C10.3039 13.0908 10.0414 15.2044 10 18.9688C14.9041 18.8237 18.8549 14.8728 19 9.96875C15.2425 10.0171 13.122 10.2727 11.713 11.6817Z" fill="#1A1A36"/>
</svg>
