<svg xmlns="http://www.w3.org/2000/svg">
<defs>
<clipPath id="a">
      <path d="M0 0h26v26H0z"/>
    </clipPath>
</defs>
<symbol id="arrow1" viewBox="0 0 9 5">
  <path d="M7.998.173a.583.583 0 0 0-.828 0L4.498 2.844a.583.583 0 0 1-.828 0L.998.173A.583.583 0 1 0 .17.995l2.677 2.678a1.75 1.75 0 0 0 2.473 0L7.998.995a.583.583 0 0 0 0-.822Z"/>
</symbol>
<symbol id="arrow2" viewBox="0 0 25 10">
  <path d="M24.464 5.296a.656.656 0 0 0 0-.928L20.288.192a.656.656 0 0 0-.928.928l3.712 3.712-3.712 3.712a.656.656 0 0 0 .928.928l4.176-4.176ZM0 4.832v.656h24V4.176H0v.656Z"/>
</symbol>
<symbol id="arrow3" viewBox="0 0 17 15">
  <path d="m16.385 7.782-3.833-3.994a.695.695 0 0 0-.998-.015.71.71 0 0 0-.015 1.008l3.641 3.787H3.542c-1.169 0-2.125-.964-2.125-2.144V.714A.714.714 0 0 0 .708 0 .714.714 0 0 0 0 .715v5.717c0 1.972 1.587 3.573 3.542 3.573h11.631l-3.64 3.787a.723.723 0 0 0 .013 1.008.716.716 0 0 0 1.006-.014l3.826-3.988a2.155 2.155 0 0 0 .007-3.023v.007Z"/>
</symbol>
<symbol id="arrow4" viewBox="0 0 12 8">
  <path d="M11.354 4.036a.5.5 0 0 0 0-.708L8.172.146a.5.5 0 1 0-.708.708l2.829 2.828L7.464 6.51a.5.5 0 1 0 .708.708l3.182-3.182ZM0 3.682v.5h11v-1H0v.5Z"/>
</symbol>
<symbol id="camera" viewBox="0 0 26 26">
  <g clip-path="url(#a)">
    <path d="m19.2 3.25-1.53-1.985A3.274 3.274 0 0 0 15.094 0H10.91a3.275 3.275 0 0 0-2.574 1.265L6.805 3.25H19.2ZM12.997 19.5a4.333 4.333 0 1 0 0-8.667 4.333 4.333 0 0 0 0 8.667Z"/>
    <path d="M20.583 5.417H5.417A5.423 5.423 0 0 0 0 10.833v9.75A5.423 5.423 0 0 0 5.417 26h15.166A5.423 5.423 0 0 0 26 20.583v-9.75a5.423 5.423 0 0 0-5.417-5.416ZM13 21.667a6.5 6.5 0 1 1 0-13 6.5 6.5 0 0 1 0 13Z"/>
  </g>
  
</symbol>
<symbol id="check" viewBox="0 0 11 7">
  <path d="M10.172.239c.14.146.207.322.2.527a.721.721 0 0 1-.239.52l-5.555 5.18a.701.701 0 0 1-.504.203.701.701 0 0 1-.503-.204L.235 3.356A.704.704 0 0 1 0 2.84a.726.726 0 0 1 .203-.53.683.683 0 0 1 .512-.235.745.745 0 0 1 .535.195l2.82 2.64L9.126.2a.712.712 0 0 1 .532-.2.718.718 0 0 1 .515.239Z"/>
</symbol>
<symbol id="check2" viewBox="0 0 22 16">
  <path d="M8.99 15.797c-.262 0-.524-.069-.757-.205C8.025 15.47 3.109 12.57.287 8.69a1.501 1.501 0 0 1 2.427-1.765c1.852 2.547 4.905 4.706 6.299 5.616 1.77-1.133 6.53-4.662 10.152-11.724a1.5 1.5 0 1 1 2.67 1.37C16.85 11.904 9.96 15.485 9.669 15.633a1.509 1.509 0 0 1-.68.163Z"/>
</symbol>
<symbol id="heart" viewBox="0 0 13 11">
  <path d="M9.478 0c-.61.01-1.206.173-1.729.475A3.398 3.398 0 0 0 6.5 1.721 3.398 3.398 0 0 0 5.251.475 3.565 3.565 0 0 0 3.522 0C2.55.04 1.634.45.975 1.139a3.47 3.47 0 0 0-.972 2.537c0 2.371 2.591 4.96 4.764 6.716A2.756 2.756 0 0 0 6.5 11c.634 0 1.247-.215 1.733-.608 2.173-1.756 4.764-4.345 4.764-6.716a3.47 3.47 0 0 0-.972-2.537A3.743 3.743 0 0 0 9.478 0Z"/>
</symbol>
<symbol id="menu2" viewBox="0 0 14 9">
  <path stroke="currentColor" d="M0 .5h14m-14 4h14m-14 4h14"/>
</symbol>
<symbol id="minus" viewBox="0 0 10 1">
  <path d="M5.512 0H10v1H0V0h5.512Z"/>
</symbol>
<symbol id="phone-call" viewBox="0 0 18 18">
  <path d="M17.249 8.25a.752.752 0 0 1-.751-.75 6 6 0 0 0-1.762-4.24A6.02 6.02 0 0 0 10.49 1.5a.752.752 0 0 1-.751-.75.75.75 0 0 1 .751-.75c1.991.003 3.9.793 5.309 2.199A7.5 7.5 0 0 1 18 7.5a.749.749 0 0 1-.751.75Zm-2.253-.75a4.495 4.495 0 0 0-1.32-3.182 4.51 4.51 0 0 0-3.187-1.317.752.752 0 0 0-.751.75.75.75 0 0 0 .751.75 2.997 2.997 0 0 1 3.004 3 .75.75 0 0 0 1.283.529c.14-.14.22-.331.22-.53Zm1.64 9.12.683-.786a2.323 2.323 0 0 0 0-3.282 421.3 421.3 0 0 0-1.83-1.411 2.33 2.33 0 0 0-3.216.004L10.84 12.35a9.602 9.602 0 0 1-5.206-5.207l1.202-1.425a2.322 2.322 0 0 0 .005-3.21S5.45.704 5.427.681a2.317 2.317 0 0 0-3.25-.034l-.863.75c-5.103 5.91 5.885 16.795 12 16.6a4.628 4.628 0 0 0 3.321-1.377Z"/>
</symbol>
<symbol id="play" viewBox="0 0 15 16">
  <path d="M12.75 10.366c2-1.155 2-4.042 0-5.196L4.5.405C2.5-.748 0 .695 0 3.004v9.527c0 2.31 2.5 3.752 4.5 2.598l8.25-4.763Z"/>
</symbol>
<symbol id="plus1" viewBox="0 0 11 11">
  <path d="M6.064 0v4.98H11v1.04H6.064V11H4.936V6.02H0V4.98h4.936V0h1.128Z"/>
</symbol>
<symbol id="search" viewBox="0 0 12 12">
  <path d="m11.86 11.092-4.058-4.06a4.344 4.344 0 0 0 .914-2.67A4.365 4.365 0 0 0 4.358 0 4.365 4.365 0 0 0 0 4.362a4.365 4.365 0 0 0 4.358 4.362c.973 0 1.918-.325 2.682-.926l4.056 4.06c.22.202.56.187.762-.033a.545.545 0 0 0 .002-.732ZM1.078 4.362a3.283 3.283 0 0 1 3.278-3.281 3.285 3.285 0 0 1 3.278 3.281 3.285 3.285 0 0 1-3.278 3.281 3.285 3.285 0 0 1-3.278-3.28Z"/>
</symbol>
<symbol id="share" viewBox="0 0 11 11">
  <path d="M3.618 7.38a.687.687 0 1 1 .972-.972c.608.607 1.668.608 2.276 0L9.153 4.12a1.611 1.611 0 0 0 0-2.276 1.611 1.611 0 0 0-2.277 0 .687.687 0 1 1-.972-.972 2.987 2.987 0 0 1 4.22 0 2.987 2.987 0 0 1 0 4.22L7.839 7.38a2.974 2.974 0 0 1-2.11.872 2.976 2.976 0 0 1-2.11-.872Zm-.635 3.617c.764 0 1.528-.29 2.11-.872a.687.687 0 1 0-.972-.972 1.611 1.611 0 0 1-2.276 0 1.611 1.611 0 0 1 0-2.277L4.12 4.603a1.61 1.61 0 0 1 2.276 0 .687.687 0 1 0 .972-.972 2.987 2.987 0 0 0-4.22 0L.873 5.904a2.987 2.987 0 0 0 0 4.22 2.975 2.975 0 0 0 2.11.873Z"/>
</symbol>
<symbol id="tour-virtual" viewBox="0 0 18 18">
  <path d="M9 0C3.785 0 0 1.892 0 4.5v10.161c0 1.18.791 2.293 2.228 3.131a1.516 1.516 0 0 0 1.52.005c.47-.27.751-.755.751-1.296V8.492c0-.84-.47-1.607-1.229-2C2.145 5.909 1.5 5.183 1.5 4.5c0-1.449 3.013-3 7.5-3 4.486 0 7.5 1.551 7.5 3 0 .683-.645 1.41-1.77 1.992a2.253 2.253 0 0 0-1.23 2v8.009c0 .542.282 1.026.752 1.296a1.518 1.518 0 0 0 1.52-.005c1.437-.838 2.228-1.95 2.228-3.131V4.5C18 1.892 14.215 0 9 0Zm0 7.5a1.875 1.875 0 1 1 0-3.75A1.875 1.875 0 0 1 9 7.5Zm0 .75c-1.654 0-3 1.345-3 3v1.5c0 .662.293 1.252.75 1.665v2.835a.75.75 0 1 0 1.5 0V15h1.5v2.25a.75.75 0 1 0 1.5 0v-2.835c.457-.412.75-1.003.75-1.665v-1.5c0-1.655-1.345-3-3-3Z"/>
</symbol>
<symbol id="trash" viewBox="0 0 13 15">
  <path d="M11.875 2.5H9.937A3.13 3.13 0 0 0 6.876 0h-1.25a3.13 3.13 0 0 0-3.063 2.5H.625a.625.625 0 1 0 0 1.25h.625v8.125A3.129 3.129 0 0 0 4.375 15h3.75a3.129 3.129 0 0 0 3.125-3.125V3.75h.625a.625.625 0 1 0 0-1.25Zm-6.25 8.125a.625.625 0 1 1-1.25 0v-3.75a.625.625 0 1 1 1.25 0v3.75Zm2.5 0a.625.625 0 1 1-1.25 0v-3.75a.625.625 0 1 1 1.25 0v3.75ZM3.857 2.5a1.879 1.879 0 0 1 1.768-1.25h1.25A1.879 1.879 0 0 1 8.643 2.5H3.857Z"/>
</symbol>
<symbol id="trophy" viewBox="0 0 12 13">
  <path d="M10.208 3.836h-.232V1.078a.55.55 0 0 0-.398-.529c-2.59-.732-4.9-.732-7.488 0a.549.549 0 0 0-.399.529v2.758H1.46C.654 3.836 0 4.492 0 5.298v.471a2.384 2.384 0 0 0 2.378 2.385h1.02c.174.118.36.222.554.312a.67.67 0 0 1 .359.785l-.377 1.437h-.965a.844.844 0 0 0 0 1.688h5.73a.844.844 0 0 0 0-1.688h-.965l-.378-1.437a.67.67 0 0 1 .36-.785 3.75 3.75 0 0 0 .553-.312h1.02a2.384 2.384 0 0 0 2.378-2.385V5.3c0-.807-.654-1.463-1.459-1.463ZM1.125 5.769V5.3c0-.187.15-.338.334-.338h.233a3.89 3.89 0 0 0 .61 2.065A1.258 1.258 0 0 1 1.127 5.77h-.001Zm9.417 0c0 .67-.521 1.219-1.177 1.258a3.89 3.89 0 0 0 .61-2.065h.234c.184 0 .334.15.334.337v.47Z"/>
</symbol>
<symbol id="user" viewBox="0 0 11 15">
  <path d="M6 8a4 4 0 1 0 0-8 4 4 0 0 0 0 8Zm-.5 1C2.464 9.003.003 11.419 0 14.4c0 .331.274.6.611.6h9.778a.606.606 0 0 0 .611-.6c-.003-2.981-2.464-5.397-5.5-5.4Z"/>
</symbol>
</svg>