<svg xmlns="http://www.w3.org/2000/svg" width="26" height="26" fill="currentColor" viewBox="0 0 26 26">
  <g clip-path="url(#a)">
    <path d="m19.2 3.25-1.53-1.985A3.274 3.274 0 0 0 15.094 0H10.91a3.275 3.275 0 0 0-2.574 1.265L6.805 3.25H19.2ZM12.997 19.5a4.333 4.333 0 1 0 0-8.667 4.333 4.333 0 0 0 0 8.667Z"/>
    <path d="M20.583 5.417H5.417A5.423 5.423 0 0 0 0 10.833v9.75A5.423 5.423 0 0 0 5.417 26h15.166A5.423 5.423 0 0 0 26 20.583v-9.75a5.423 5.423 0 0 0-5.417-5.416ZM13 21.667a6.5 6.5 0 1 1 0-13 6.5 6.5 0 0 1 0 13Z"/>
  </g>
  <defs>
    <clipPath id="a">
      <path d="M0 0h26v26H0z"/>
    </clipPath>
  </defs>
</svg>
