<svg xmlns="http://www.w3.org/2000/svg" width="14" height="14" fill="currentColor" viewBox="0 0 14 14">
  <mask id="a">
    <path d="M7.098 0a4.056 4.056 0 0 1 2.696 1.095 3.5 3.5 0 0 1 1.11 2.53V4h2.961c.036 0 .07.013.096.036a.124.124 0 0 1 .039.089V13.5c0 .133-.056.26-.157.354a.561.561 0 0 1-.381.146H.538a.561.561 0 0 1-.38-.146A.483.483 0 0 1 0 13.5V4.125a.12.12 0 0 1 .04-.089A.141.141 0 0 1 .134 4h2.96v-.375a3.5 3.5 0 0 1 1.111-2.53A4.056 4.056 0 0 1 6.902 0h.196Zm-.123 1.25c-1.408.014-2.533 1.099-2.533 2.406V4h5.116v-.375c0-.314-.067-.625-.198-.914a2.377 2.377 0 0 0-.561-.773 2.586 2.586 0 0 0-.838-.513 2.735 2.735 0 0 0-.986-.175Z"/>
  </mask>
  <path d="M7.098 0a4.056 4.056 0 0 1 2.696 1.095 3.5 3.5 0 0 1 1.11 2.53V4h2.961c.036 0 .07.013.096.036a.124.124 0 0 1 .039.089V13.5c0 .133-.056.26-.157.354a.561.561 0 0 1-.381.146H.538a.561.561 0 0 1-.38-.146A.483.483 0 0 1 0 13.5V4.125a.12.12 0 0 1 .04-.089A.141.141 0 0 1 .134 4h2.96v-.375a3.5 3.5 0 0 1 1.111-2.53A4.056 4.056 0 0 1 6.902 0h.196Zm-.123 1.25c-1.408.014-2.533 1.099-2.533 2.406V4h5.116v-.375c0-.314-.067-.625-.198-.914a2.377 2.377 0 0 0-.561-.773 2.586 2.586 0 0 0-.838-.513 2.735 2.735 0 0 0-.986-.175Z"/>
  <path d="m7.098 0 .463-19.116-.232-.006h-.231V0Zm2.696 1.095 13.188-13.846-.001-.002L9.794 1.095Zm1.11 2.53h19.122v-.016l-19.122.016Zm0 .375H-8.217v19.122h19.121V4Zm3.057.036L26.972-9.976l-.006-.006L13.961 4.036Zm-.118 9.818 13.011 14.012.01-.01-13.021-14.003Zm-.381.146v19.122h.012L13.462 14ZM.538 14 .526 33.122h.012V14Zm-.38-.146-13.022 14.002.01.01L.157 13.854ZM0 13.5h-19.122H0Zm.04-9.464L-12.967-9.982l-.006.006L.039 4.036ZM3.095 4v19.122h19.122V4H3.096Zm0-.375-19.122-.016v.016H3.096Zm1.11-2.53L-8.98-12.753l-.001.002L4.206 1.095ZM6.902 0v-19.122h-.231l-.232.006L6.902 0Zm.073 1.25-.157-19.121h-.031L6.975 1.25ZM4.442 4h-19.121v19.122H4.442V4Zm5.116 0v19.122h19.121V4H9.558Zm0-.375h19.121v-.02l-19.121.02Zm-.198-.914L26.8-5.133 9.36 2.71Zm-.56-.773 12.944-14.074-.002-.001L8.8 1.938Zm-.838-.513 6.749-17.891-6.75 17.89ZM7.098 0l-.464 19.116a15.067 15.067 0 0 1-10.027-4.174L9.794 1.095 22.98-12.753c-4.285-4.08-9.843-6.228-15.42-6.363L7.098 0Zm2.696 1.095L-3.394 14.94a15.624 15.624 0 0 1-4.823-11.3l19.121-.016 19.122-.016c-.005-6.402-2.717-12.24-7.044-16.36L9.794 1.095Zm1.11 2.53H-8.217V4h38.243v-.375H10.904Zm0 .375v19.122h2.961v-38.244h-2.96V4Zm2.961 0v19.122a18.98 18.98 0 0 1-12.91-5.068L13.962 4.036 26.966-9.982a19.263 19.263 0 0 0-13.1-5.14V4Zm.096.036L.95 18.048A19 19 0 0 1-5.122 4.125h38.244c0-5.36-2.236-10.467-6.15-14.101L13.961 4.036Zm.039.089H-5.122V13.5h38.244V4.125H14Zm0 9.375H-5.122A18.64 18.64 0 0 1 .821-.15l13.022 14.004 13.021 14.002A19.604 19.604 0 0 0 33.122 13.5H14Zm-.157.354L.83-.16a18.56 18.56 0 0 1 12.62-4.962L13.462 14l.012 19.122a19.683 19.683 0 0 0 13.38-5.256L13.843 13.854Zm-.381.146V-5.122H.538v38.244h12.924V14ZM.538 14 .55-5.122A18.56 18.56 0 0 1 13.17-.159L.157 13.854l-13.011 14.012a19.683 19.683 0 0 0 13.38 5.256L.538 14Zm-.38-.146L13.177-.15a18.64 18.64 0 0 1 5.946 13.65h-38.244a19.604 19.604 0 0 0 6.258 14.356L.157 13.853ZM0 13.5h19.122V4.125h-38.244V13.5H0Zm0-9.375h19.122a19 19 0 0 1-6.072 13.923L.04 4.036-12.973-9.976a19.243 19.243 0 0 0-6.15 14.101H0Zm.04-.089 13.004 14.018a18.981 18.981 0 0 1-12.91 5.068v-38.244a19.26 19.26 0 0 0-13.1 5.14L.039 4.036ZM.134 4v19.122h2.96v-38.244H.136V4Zm2.96 0h19.122v-.375h-38.241V4H3.096Zm0-.375 19.122.016a15.624 15.624 0 0 1-4.823 11.3L4.206 1.095-8.982-12.751c-4.327 4.12-7.039 9.958-7.044 16.36l19.122.016Zm1.111-2.53 13.187 13.847a15.067 15.067 0 0 1-10.027 4.174L6.902 0 6.44-19.116c-5.577.135-11.135 2.283-15.42 6.363L4.206 1.095ZM6.902 0v19.122h.196v-38.244h-.196V0Zm.073 1.25-.188-19.12C-4.09-17.765-14.68-9.13-14.68 3.655h38.244c0 10.171-8.342 16.636-16.402 16.715L6.975 1.25ZM4.442 3.656h-19.121V4h38.243v-.344H4.442Zm0 .344v19.122h5.116v-38.244H4.442V4Zm5.116 0h19.121v-.375H-9.564V4H9.558Zm0-.375 19.121-.02a21.353 21.353 0 0 0-1.88-8.738L9.36 2.711l-17.439 7.844a16.89 16.89 0 0 1-1.485-6.91l19.122-.02Zm-.198-.914L26.8-5.133a21.499 21.499 0 0 0-5.057-7.003L8.8 1.938-4.145 16.013a16.745 16.745 0 0 1-3.933-5.458L9.36 2.711Zm-.56-.773 12.94-14.075a21.706 21.706 0 0 0-7.031-4.33L7.96 1.426l-6.748 17.89a16.536 16.536 0 0 1-5.356-3.3L8.8 1.937Zm-.838-.513 6.748-17.892a21.856 21.856 0 0 0-7.89-1.404L6.974 1.25l.156 19.121a16.386 16.386 0 0 1-5.918-1.055L7.96 1.425Z" mask="url(#a)"/>
</svg>
