<svg xmlns="http://www.w3.org/2000/svg" width="18" height="18" fill="currentColor" viewBox="0 0 18 18">
  <path d="M17.249 8.25a.752.752 0 0 1-.751-.75 6 6 0 0 0-1.762-4.24A6.02 6.02 0 0 0 10.49 1.5a.752.752 0 0 1-.751-.75.75.75 0 0 1 .751-.75c1.991.003 3.9.793 5.309 2.199A7.5 7.5 0 0 1 18 7.5a.749.749 0 0 1-.751.75Zm-2.253-.75a4.495 4.495 0 0 0-1.32-3.182 4.51 4.51 0 0 0-3.187-1.317.752.752 0 0 0-.751.75.75.75 0 0 0 .751.75 2.997 2.997 0 0 1 3.004 3 .75.75 0 0 0 1.283.529c.14-.14.22-.331.22-.53Zm1.64 9.12.683-.786a2.323 2.323 0 0 0 0-3.282 421.3 421.3 0 0 0-1.83-1.411 2.33 2.33 0 0 0-3.216.004L10.84 12.35a9.602 9.602 0 0 1-5.206-5.207l1.202-1.425a2.322 2.322 0 0 0 .005-3.21S5.45.704 5.427.681a2.317 2.317 0 0 0-3.25-.034l-.863.75c-5.103 5.91 5.885 16.795 12 16.6a4.628 4.628 0 0 0 3.321-1.377Z"/>
</svg>
