<svg xmlns="http://www.w3.org/2000/svg" width="11" height="11" fill="currentColor" viewBox="0 0 11 11">
  <path d="M3.618 7.38a.687.687 0 1 1 .972-.972c.608.607 1.668.608 2.276 0L9.153 4.12a1.611 1.611 0 0 0 0-2.276 1.611 1.611 0 0 0-2.277 0 .687.687 0 1 1-.972-.972 2.987 2.987 0 0 1 4.22 0 2.987 2.987 0 0 1 0 4.22L7.839 7.38a2.974 2.974 0 0 1-2.11.872 2.976 2.976 0 0 1-2.11-.872Zm-.635 3.617c.764 0 1.528-.29 2.11-.872a.687.687 0 1 0-.972-.972 1.611 1.611 0 0 1-2.276 0 1.611 1.611 0 0 1 0-2.277L4.12 4.603a1.61 1.61 0 0 1 2.276 0 .687.687 0 1 0 .972-.972 2.987 2.987 0 0 0-4.22 0L.873 5.904a2.987 2.987 0 0 0 0 4.22 2.975 2.975 0 0 0 2.11.873Z"/>
</svg>
