<svg xmlns="http://www.w3.org/2000/svg" width="18" height="18" fill="currentColor" viewBox="0 0 18 18">
  <path d="M9 0C3.785 0 0 1.892 0 4.5v10.161c0 1.18.791 2.293 2.228 3.131a1.516 1.516 0 0 0 1.52.005c.47-.27.751-.755.751-1.296V8.492c0-.84-.47-1.607-1.229-2C2.145 5.909 1.5 5.183 1.5 4.5c0-1.449 3.013-3 7.5-3 4.486 0 7.5 1.551 7.5 3 0 .683-.645 1.41-1.77 1.992a2.253 2.253 0 0 0-1.23 2v8.009c0 .542.282 1.026.752 1.296a1.518 1.518 0 0 0 1.52-.005c1.437-.838 2.228-1.95 2.228-3.131V4.5C18 1.892 14.215 0 9 0Zm0 7.5a1.875 1.875 0 1 1 0-3.75A1.875 1.875 0 0 1 9 7.5Zm0 .75c-1.654 0-3 1.345-3 3v1.5c0 .662.293 1.252.75 1.665v2.835a.75.75 0 1 0 1.5 0V15h1.5v2.25a.75.75 0 1 0 1.5 0v-2.835c.457-.412.75-1.003.75-1.665v-1.5c0-1.655-1.345-3-3-3Z"/>
</svg>
