<svg xmlns="http://www.w3.org/2000/svg" width="13" height="15" fill="currentColor" viewBox="0 0 13 15">
  <path d="M11.875 2.5H9.937A3.13 3.13 0 0 0 6.876 0h-1.25a3.13 3.13 0 0 0-3.063 2.5H.625a.625.625 0 1 0 0 1.25h.625v8.125A3.129 3.129 0 0 0 4.375 15h3.75a3.129 3.129 0 0 0 3.125-3.125V3.75h.625a.625.625 0 1 0 0-1.25Zm-6.25 8.125a.625.625 0 1 1-1.25 0v-3.75a.625.625 0 1 1 1.25 0v3.75Zm2.5 0a.625.625 0 1 1-1.25 0v-3.75a.625.625 0 1 1 1.25 0v3.75ZM3.857 2.5a1.879 1.879 0 0 1 1.768-1.25h1.25A1.879 1.879 0 0 1 8.643 2.5H3.857Z"/>
</svg>
